<svg width="1440" height="1080" viewBox="0 0 1440 1080" fill="none" xmlns="http://www.w3.org/2000/svg">
<g clip-path="url(#clip0_385_8990)">
<rect width="1440" height="1080" fill="#020202"/>
<circle cx="218" cy="307" r="4.5" stroke="#FF0000"/>
<circle cx="165" cy="154" r="4.5" stroke="#FF0000"/>
<circle cx="42" cy="467" r="4.5" stroke="#FF0000"/>
<path d="M1 526H117.662M1437 526H117.662M117.662 526V467M213.796 307H165.729M117.662 467V307H165.729M117.662 467H46.5635M165.729 307V202.5M165.729 158.5V202.5M165.729 202.5H117.662M1 202.5H117.662M117.662 202.5V146.75M117.662 91V146.75M117.662 146.75H480.167V1013H1053.97V91H1437V345.5H1V421.5H401.057V56H1V91H907.262V762H1273.27V56H1437V623.5M1437 718H1V263H770.572V480.5H331.961V858H971.352V32H721.504V120H198.775V925H1437V804M1437 718V804M1437 718V623.5M1437 804H416.078V623.5H1437" stroke="url(#paint0_linear_385_8990)" stroke-opacity="0.5"/>
<rect x="911" y="228" width="437" height="35" fill="white" fill-opacity="0.7"/>
<rect x="1046" y="275" width="302" height="35" fill="white" fill-opacity="0.7"/>
<rect x="952" y="347" width="396" height="21" fill="white" fill-opacity="0.5"/>
<rect x="946" y="373" width="402" height="21" fill="white" fill-opacity="0.5"/>
<rect x="958" y="399" width="390" height="21" fill="white" fill-opacity="0.5"/>
<rect x="1029" y="425" width="319" height="21" fill="white" fill-opacity="0.5"/>
<g filter="url(#filter0_i_385_8990)">
<rect x="1240" y="505" width="108" height="52" rx="12" fill="#151515" fill-opacity="0.5"/>
<rect x="1240.5" y="505.5" width="107" height="51" rx="11.5" stroke="#7E7E7E" stroke-opacity="0.2"/>
<path d="M1265.76 538V523.455H1270.85C1271.86 523.455 1272.7 523.63 1273.35 523.98C1274.01 524.326 1274.5 524.792 1274.82 525.379C1275.15 525.962 1275.31 526.608 1275.31 527.318C1275.31 527.943 1275.2 528.459 1274.97 528.866C1274.76 529.274 1274.47 529.596 1274.11 529.832C1273.75 530.069 1273.37 530.244 1272.95 530.358V530.5C1273.39 530.528 1273.84 530.685 1274.29 530.969C1274.74 531.253 1275.12 531.66 1275.42 532.19C1275.72 532.721 1275.88 533.369 1275.88 534.136C1275.88 534.866 1275.71 535.521 1275.38 536.104C1275.05 536.686 1274.52 537.148 1273.81 537.489C1273.09 537.83 1272.16 538 1271.02 538H1265.76ZM1267.52 536.438H1271.02C1272.17 536.438 1272.98 536.215 1273.47 535.77C1273.96 535.32 1274.2 534.776 1274.2 534.136C1274.2 533.644 1274.07 533.189 1273.82 532.773C1273.57 532.351 1273.21 532.015 1272.75 531.764C1272.29 531.509 1271.74 531.381 1271.1 531.381H1267.52V536.438ZM1267.52 529.847H1270.79C1271.32 529.847 1271.8 529.742 1272.22 529.534C1272.66 529.326 1273 529.032 1273.25 528.653C1273.5 528.275 1273.63 527.83 1273.63 527.318C1273.63 526.679 1273.41 526.137 1272.96 525.692C1272.52 525.242 1271.81 525.017 1270.85 525.017H1267.52V529.847ZM1284.82 533.54V527.091H1286.49V538H1284.82V536.153H1284.7C1284.45 536.707 1284.05 537.179 1283.51 537.567C1282.97 537.95 1282.29 538.142 1281.46 538.142C1280.78 538.142 1280.18 537.993 1279.65 537.695C1279.12 537.392 1278.7 536.937 1278.4 536.331C1278.09 535.72 1277.94 534.951 1277.94 534.023V527.091H1279.62V533.909C1279.62 534.705 1279.84 535.339 1280.29 535.812C1280.74 536.286 1281.31 536.523 1282 536.523C1282.42 536.523 1282.84 536.416 1283.28 536.203C1283.71 535.99 1284.08 535.663 1284.37 535.223C1284.67 534.783 1284.82 534.222 1284.82 533.54ZM1293.71 527.091V528.511H1288.05V527.091H1293.71ZM1289.7 524.477H1291.38V534.875C1291.38 535.348 1291.45 535.704 1291.58 535.94C1291.73 536.172 1291.91 536.329 1292.12 536.409C1292.35 536.485 1292.58 536.523 1292.83 536.523C1293.01 536.523 1293.16 536.513 1293.28 536.494C1293.4 536.471 1293.49 536.452 1293.57 536.438L1293.91 537.943C1293.79 537.986 1293.63 538.028 1293.43 538.071C1293.23 538.118 1292.97 538.142 1292.66 538.142C1292.18 538.142 1291.72 538.04 1291.26 537.837C1290.81 537.633 1290.44 537.323 1290.14 536.906C1289.85 536.49 1289.7 535.964 1289.7 535.33V524.477ZM1300.37 527.091V528.511H1294.72V527.091H1300.37ZM1296.37 524.477H1298.04V534.875C1298.04 535.348 1298.11 535.704 1298.25 535.94C1298.39 536.172 1298.57 536.329 1298.79 536.409C1299.01 536.485 1299.25 536.523 1299.49 536.523C1299.68 536.523 1299.83 536.513 1299.95 536.494C1300.07 536.471 1300.16 536.452 1300.23 536.438L1300.57 537.943C1300.46 537.986 1300.3 538.028 1300.1 538.071C1299.89 538.118 1299.63 538.142 1299.32 538.142C1298.85 538.142 1298.38 538.04 1297.93 537.837C1297.48 537.633 1297.11 537.323 1296.81 536.906C1296.51 536.49 1296.37 535.964 1296.37 535.33V524.477ZM1306.61 538.227C1305.62 538.227 1304.76 537.993 1304.02 537.524C1303.28 537.055 1302.7 536.4 1302.28 535.557C1301.87 534.714 1301.67 533.729 1301.67 532.602C1301.67 531.466 1301.87 530.474 1302.28 529.626C1302.7 528.779 1303.28 528.121 1304.02 527.652C1304.76 527.183 1305.62 526.949 1306.61 526.949C1307.59 526.949 1308.46 527.183 1309.19 527.652C1309.94 528.121 1310.52 528.779 1310.93 529.626C1311.34 530.474 1311.55 531.466 1311.55 532.602C1311.55 533.729 1311.34 534.714 1310.93 535.557C1310.52 536.4 1309.94 537.055 1309.19 537.524C1308.46 537.993 1307.59 538.227 1306.61 538.227ZM1306.61 536.722C1307.36 536.722 1307.97 536.53 1308.46 536.146C1308.94 535.763 1309.3 535.259 1309.53 534.634C1309.76 534.009 1309.88 533.331 1309.88 532.602C1309.88 531.873 1309.76 531.194 1309.53 530.564C1309.3 529.934 1308.94 529.425 1308.46 529.037C1307.97 528.649 1307.36 528.455 1306.61 528.455C1305.86 528.455 1305.25 528.649 1304.76 529.037C1304.28 529.425 1303.92 529.934 1303.69 530.564C1303.46 531.194 1303.34 531.873 1303.34 532.602C1303.34 533.331 1303.46 534.009 1303.69 534.634C1303.92 535.259 1304.28 535.763 1304.76 536.146C1305.25 536.53 1305.86 536.722 1306.61 536.722ZM1315.19 531.438V538H1313.51V527.091H1315.13V528.795H1315.27C1315.53 528.241 1315.92 527.796 1316.44 527.46C1316.96 527.119 1317.63 526.949 1318.45 526.949C1319.19 526.949 1319.84 527.1 1320.39 527.403C1320.95 527.702 1321.38 528.156 1321.69 528.767C1321.99 529.373 1322.15 530.14 1322.15 531.068V538H1320.47V531.182C1320.47 530.325 1320.25 529.657 1319.8 529.179C1319.36 528.696 1318.75 528.455 1317.97 528.455C1317.44 528.455 1316.96 528.571 1316.54 528.803C1316.12 529.035 1315.79 529.373 1315.55 529.818C1315.31 530.263 1315.19 530.803 1315.19 531.438Z" fill="#CFCFCF"/>
</g>
</g>
<defs>
<filter id="filter0_i_385_8990" x="1240" y="505" width="108" height="53" filterUnits="userSpaceOnUse" color-interpolation-filters="sRGB">
<feFlood flood-opacity="0" result="BackgroundImageFix"/>
<feBlend mode="normal" in="SourceGraphic" in2="BackgroundImageFix" result="shape"/>
<feColorMatrix in="SourceAlpha" type="matrix" values="0 0 0 0 0 0 0 0 0 0 0 0 0 0 0 0 0 0 127 0" result="hardAlpha"/>
<feOffset dy="1"/>
<feGaussianBlur stdDeviation="10"/>
<feComposite in2="hardAlpha" operator="arithmetic" k2="-1" k3="1"/>
<feColorMatrix type="matrix" values="0 0 0 0 1 0 0 0 0 1 0 0 0 0 1 0 0 0 0.05 0"/>
<feBlend mode="normal" in2="shape" result="effect1_innerShadow_385_8990"/>
</filter>
<linearGradient id="paint0_linear_385_8990" x1="1" y1="390" x2="1437" y2="390" gradientUnits="userSpaceOnUse">
<stop stop-color="white"/>
<stop offset="0.545" stop-color="#1F1F1F"/>
<stop offset="0.68" stop-color="#191919"/>
<stop offset="1"/>
</linearGradient>
<clipPath id="clip0_385_8990">
<rect width="1440" height="1080" fill="white"/>
</clipPath>
</defs>
</svg>
