<svg width="1440" height="1024" viewBox="0 0 1440 1024" fill="none" xmlns="http://www.w3.org/2000/svg">
<rect width="1440" height="1024" fill="#F1F1F1"/>
<path d="M51.392 71H48.5966L54.8778 53.5455H57.9205L64.2017 71H61.4062L56.4716 56.7159H56.3352L51.392 71ZM51.8608 64.1648H60.929V66.3807H51.8608V64.1648ZM65.3178 71V57.9091H67.7808V59.9886H67.9172C68.1558 59.2841 68.5763 58.7301 69.1786 58.3267C69.7865 57.9176 70.474 57.7131 71.2411 57.7131C71.4001 57.7131 71.5876 57.7187 71.8036 57.7301C72.0251 57.7415 72.1984 57.7557 72.3234 57.7727V60.2102C72.2212 60.1818 72.0393 60.1506 71.778 60.1165C71.5166 60.0767 71.2553 60.0568 70.9939 60.0568C70.3916 60.0568 69.8547 60.1847 69.3831 60.4403C68.9172 60.6903 68.5479 61.0398 68.2751 61.4886C68.0024 61.9318 67.8661 62.4375 67.8661 63.0057V71H65.3178ZM78.502 71.2642C77.2122 71.2642 76.1014 70.9886 75.1696 70.4375C74.2435 69.8807 73.5276 69.0994 73.0219 68.0938C72.5219 67.0824 72.2719 65.8977 72.2719 64.5398C72.2719 63.1989 72.5219 62.017 73.0219 60.9943C73.5276 59.9716 74.2321 59.1733 75.1355 58.5994C76.0446 58.0256 77.1071 57.7386 78.323 57.7386C79.0616 57.7386 79.7776 57.8608 80.4707 58.1051C81.1639 58.3494 81.7861 58.733 82.3372 59.2557C82.8884 59.7784 83.323 60.4574 83.6412 61.2926C83.9594 62.1222 84.1185 63.1307 84.1185 64.3182V65.2216H73.7122V63.3125H81.6213C81.6213 62.642 81.4849 62.0483 81.2122 61.5312C80.9395 61.0085 80.556 60.5966 80.0616 60.2955C79.573 59.9943 78.9991 59.8438 78.3401 59.8438C77.6241 59.8438 76.9991 60.0199 76.4651 60.3722C75.9366 60.7187 75.5276 61.1733 75.2378 61.7358C74.9537 62.2926 74.8116 62.8977 74.8116 63.5511V65.0426C74.8116 65.9176 74.9651 66.6619 75.2719 67.2756C75.5844 67.8892 76.019 68.358 76.5759 68.6818C77.1327 69 77.7832 69.1591 78.5276 69.1591C79.0105 69.1591 79.4509 69.0909 79.8486 68.9545C80.2463 68.8125 80.5901 68.6023 80.8798 68.3239C81.1696 68.0455 81.3912 67.7017 81.5446 67.2926L83.9565 67.7273C83.7634 68.4375 83.4168 69.0597 82.9168 69.5938C82.4224 70.1222 81.8003 70.5341 81.0503 70.8295C80.306 71.1193 79.4565 71.2642 78.502 71.2642ZM92.5082 75.9091C92.1276 75.9091 91.781 75.8778 91.4685 75.8153C91.156 75.7585 90.923 75.696 90.7696 75.6278L91.3832 73.5398C91.8491 73.6648 92.2639 73.7188 92.6276 73.7017C92.9912 73.6847 93.3122 73.5483 93.5906 73.2926C93.8747 73.0369 94.1247 72.6193 94.3406 72.0398L94.656 71.1705L89.8662 57.9091H92.5935L95.9088 68.0682H96.0452L99.3605 57.9091H102.096L96.7014 72.7472C96.4514 73.429 96.1332 74.0057 95.7469 74.4773C95.3605 74.9545 94.9003 75.3125 94.3662 75.5511C93.8321 75.7898 93.2128 75.9091 92.5082 75.9091ZM108.36 71.2642C107.133 71.2642 106.062 70.983 105.147 70.4205C104.232 69.858 103.522 69.071 103.016 68.0597C102.511 67.0483 102.258 65.8665 102.258 64.5142C102.258 63.1562 102.511 61.9687 103.016 60.9517C103.522 59.9347 104.232 59.1449 105.147 58.5824C106.062 58.0199 107.133 57.7386 108.36 57.7386C109.587 57.7386 110.658 58.0199 111.573 58.5824C112.488 59.1449 113.198 59.9347 113.704 60.9517C114.21 61.9687 114.462 63.1562 114.462 64.5142C114.462 65.8665 114.21 67.0483 113.704 68.0597C113.198 69.071 112.488 69.858 111.573 70.4205C110.658 70.983 109.587 71.2642 108.36 71.2642ZM108.369 69.125C109.164 69.125 109.823 68.9148 110.346 68.4943C110.869 68.0739 111.255 67.5142 111.505 66.8153C111.761 66.1165 111.888 65.3466 111.888 64.5057C111.888 63.6705 111.761 62.9034 111.505 62.2045C111.255 61.5 110.869 60.9347 110.346 60.5085C109.823 60.0824 109.164 59.8693 108.369 59.8693C107.567 59.8693 106.903 60.0824 106.374 60.5085C105.852 60.9347 105.462 61.5 105.207 62.2045C104.957 62.9034 104.832 63.6705 104.832 64.5057C104.832 65.3466 104.957 66.1165 105.207 66.8153C105.462 67.5142 105.852 68.0739 106.374 68.4943C106.903 68.9148 107.567 69.125 108.369 69.125ZM124.399 65.571V57.9091H126.956V71H124.451V68.733H124.314C124.013 69.4318 123.53 70.0142 122.865 70.4801C122.206 70.9403 121.385 71.1705 120.402 71.1705C119.561 71.1705 118.817 70.9858 118.169 70.6165C117.527 70.2415 117.022 69.6875 116.652 68.9545C116.289 68.2216 116.107 67.3153 116.107 66.2358V57.9091H118.655V65.929C118.655 66.821 118.902 67.5312 119.397 68.0597C119.891 68.5881 120.533 68.8523 121.323 68.8523C121.8 68.8523 122.274 68.733 122.746 68.4943C123.223 68.2557 123.618 67.8949 123.931 67.4119C124.249 66.929 124.405 66.3153 124.399 65.571ZM136.88 63.2273V71H134.332V53.5455H136.846V60.0398H137.008C137.315 59.3352 137.784 58.7756 138.414 58.3608C139.045 57.946 139.869 57.7386 140.886 57.7386C141.784 57.7386 142.568 57.9233 143.238 58.2926C143.914 58.6619 144.437 59.2131 144.806 59.946C145.181 60.6733 145.369 61.5824 145.369 62.6733V71H142.82V62.9801C142.82 62.0199 142.573 61.2756 142.079 60.7472C141.585 60.2131 140.897 59.946 140.016 59.946C139.414 59.946 138.874 60.0739 138.397 60.3295C137.926 60.5852 137.553 60.9602 137.281 61.4545C137.014 61.9432 136.88 62.5341 136.88 63.2273ZM151.379 71.2898C150.549 71.2898 149.799 71.1364 149.129 70.8295C148.459 70.517 147.927 70.0653 147.535 69.4744C147.149 68.8835 146.956 68.1591 146.956 67.3011C146.956 66.5625 147.098 65.9545 147.382 65.4773C147.666 65 148.049 64.6222 148.532 64.3438C149.015 64.0653 149.555 63.8551 150.152 63.7131C150.748 63.571 151.356 63.4631 151.976 63.3892C152.76 63.2983 153.396 63.2244 153.885 63.1676C154.373 63.1051 154.728 63.0057 154.95 62.8693C155.172 62.733 155.282 62.5114 155.282 62.2045V62.1449C155.282 61.4006 155.072 60.8239 154.652 60.4148C154.237 60.0057 153.618 59.8011 152.794 59.8011C151.936 59.8011 151.26 59.9915 150.765 60.3722C150.277 60.7472 149.939 61.1648 149.751 61.625L147.356 61.0795C147.64 60.2841 148.055 59.642 148.601 59.1534C149.152 58.6591 149.785 58.3011 150.501 58.0795C151.217 57.8523 151.97 57.7386 152.76 57.7386C153.282 57.7386 153.836 57.8011 154.422 57.9261C155.012 58.0455 155.564 58.267 156.075 58.5909C156.592 58.9148 157.015 59.3778 157.345 59.9801C157.674 60.5767 157.839 61.3523 157.839 62.3068V71H155.351V69.2102H155.248C155.084 69.5398 154.836 69.8636 154.507 70.1818C154.177 70.5 153.754 70.7642 153.237 70.9744C152.72 71.1847 152.101 71.2898 151.379 71.2898ZM151.933 69.2443C152.637 69.2443 153.24 69.1051 153.74 68.8267C154.245 68.5483 154.629 68.1847 154.89 67.7358C155.157 67.2812 155.291 66.7955 155.291 66.2784V64.5909C155.2 64.6818 155.024 64.767 154.762 64.8466C154.507 64.9205 154.214 64.9858 153.885 65.0426C153.555 65.0937 153.234 65.142 152.922 65.1875C152.609 65.2273 152.348 65.2614 152.137 65.2898C151.643 65.3523 151.191 65.4574 150.782 65.6051C150.379 65.7528 150.055 65.9659 149.811 66.2443C149.572 66.517 149.453 66.8807 149.453 67.3352C149.453 67.9659 149.686 68.4432 150.152 68.767C150.618 69.0852 151.211 69.2443 151.933 69.2443ZM160.033 75.9091V57.9091H162.522V60.0312H162.735C162.883 59.7585 163.096 59.4432 163.374 59.0852C163.653 58.7273 164.039 58.4148 164.533 58.1477C165.028 57.875 165.681 57.7386 166.494 57.7386C167.55 57.7386 168.494 58.0057 169.323 58.5398C170.153 59.0739 170.803 59.8437 171.275 60.8494C171.752 61.8551 171.991 63.0653 171.991 64.4801C171.991 65.8949 171.755 67.108 171.283 68.1193C170.812 69.125 170.164 69.9006 169.34 70.446C168.516 70.9858 167.576 71.2557 166.519 71.2557C165.724 71.2557 165.073 71.1222 164.567 70.8551C164.067 70.5881 163.675 70.2756 163.391 69.9176C163.107 69.5597 162.888 69.2415 162.735 68.9631H162.582V75.9091H160.033ZM162.531 64.4545C162.531 65.375 162.664 66.1818 162.931 66.875C163.198 67.5682 163.585 68.1108 164.09 68.5028C164.596 68.8892 165.215 69.0824 165.948 69.0824C166.71 69.0824 167.346 68.8807 167.857 68.4773C168.369 68.0682 168.755 67.5142 169.016 66.8153C169.283 66.1165 169.417 65.3295 169.417 64.4545C169.417 63.5909 169.286 62.8153 169.025 62.1278C168.769 61.4403 168.383 60.8977 167.866 60.5C167.354 60.1023 166.715 59.9034 165.948 59.9034C165.21 59.9034 164.585 60.0937 164.073 60.4744C163.567 60.8551 163.184 61.3864 162.923 62.0682C162.661 62.75 162.531 63.5455 162.531 64.4545ZM173.646 75.9091V57.9091H176.135V60.0312H176.348C176.495 59.7585 176.708 59.4432 176.987 59.0852C177.265 58.7273 177.652 58.4148 178.146 58.1477C178.64 57.875 179.294 57.7386 180.106 57.7386C181.163 57.7386 182.106 58.0057 182.936 58.5398C183.765 59.0739 184.416 59.8437 184.887 60.8494C185.365 61.8551 185.603 63.0653 185.603 64.4801C185.603 65.8949 185.367 67.108 184.896 68.1193C184.424 69.125 183.777 69.9006 182.953 70.446C182.129 70.9858 181.188 71.2557 180.132 71.2557C179.336 71.2557 178.686 71.1222 178.18 70.8551C177.68 70.5881 177.288 70.2756 177.004 69.9176C176.72 69.5597 176.501 69.2415 176.348 68.9631H176.194V75.9091H173.646ZM176.143 64.4545C176.143 65.375 176.277 66.1818 176.544 66.875C176.811 67.5682 177.197 68.1108 177.703 68.5028C178.208 68.8892 178.828 69.0824 179.561 69.0824C180.322 69.0824 180.958 68.8807 181.47 68.4773C181.981 68.0682 182.367 67.5142 182.629 66.8153C182.896 66.1165 183.029 65.3295 183.029 64.4545C183.029 63.5909 182.899 62.8153 182.637 62.1278C182.382 61.4403 181.995 60.8977 181.478 60.5C180.967 60.1023 180.328 59.9034 179.561 59.9034C178.822 59.9034 178.197 60.0937 177.686 60.4744C177.18 60.8551 176.796 61.3864 176.535 62.0682C176.274 62.75 176.143 63.5455 176.143 64.4545ZM188.424 75.9091C188.043 75.9091 187.697 75.8778 187.384 75.8153C187.072 75.7585 186.839 75.696 186.685 75.6278L187.299 73.5398C187.765 73.6648 188.18 73.7188 188.543 73.7017C188.907 73.6847 189.228 73.5483 189.506 73.2926C189.79 73.0369 190.04 72.6193 190.256 72.0398L190.572 71.1705L185.782 57.9091H188.509L191.824 68.0682H191.961L195.276 57.9091H198.012L192.617 72.7472C192.367 73.429 192.049 74.0057 191.663 74.4773C191.276 74.9545 190.816 75.3125 190.282 75.5511C189.748 75.7898 189.128 75.9091 188.424 75.9091ZM207.196 71L203.344 57.9091H205.978L208.543 67.5227H208.671L211.245 57.9091H213.878L216.435 67.4801H216.563L219.111 57.9091H221.745L217.901 71H215.302L212.642 61.5483H212.446L209.787 71H207.196ZM222.963 71V57.9091H225.511V71H222.963ZM224.25 55.8892C223.807 55.8892 223.426 55.7415 223.108 55.446C222.795 55.1449 222.639 54.7869 222.639 54.3722C222.639 53.9517 222.795 53.5937 223.108 53.2983C223.426 52.9972 223.807 52.8466 224.25 52.8466C224.693 52.8466 225.071 52.9972 225.384 53.2983C225.702 53.5937 225.861 53.9517 225.861 54.3722C225.861 54.7869 225.702 55.1449 225.384 55.446C225.071 55.7415 224.693 55.8892 224.25 55.8892ZM233.85 57.9091V59.9545H226.7V57.9091H233.85ZM228.617 54.7727H231.166V67.1562C231.166 67.6506 231.24 68.0227 231.387 68.2727C231.535 68.517 231.725 68.6847 231.958 68.7756C232.197 68.8608 232.456 68.9034 232.734 68.9034C232.938 68.9034 233.117 68.8892 233.271 68.8608C233.424 68.8324 233.544 68.8097 233.629 68.7926L234.089 70.8977C233.941 70.9545 233.731 71.0114 233.458 71.0682C233.186 71.1307 232.845 71.1648 232.436 71.1705C231.765 71.1818 231.14 71.0625 230.561 70.8125C229.981 70.5625 229.512 70.1761 229.154 69.6534C228.796 69.1307 228.617 68.4744 228.617 67.6847V54.7727ZM238.299 63.2273V71H235.751V53.5455H238.265V60.0398H238.427C238.734 59.3352 239.202 58.7756 239.833 58.3608C240.464 57.946 241.288 57.7386 242.305 57.7386C243.202 57.7386 243.986 57.9233 244.657 58.2926C245.333 58.6619 245.856 59.2131 246.225 59.946C246.6 60.6733 246.788 61.5824 246.788 62.6733V71H244.239V62.9801C244.239 62.0199 243.992 61.2756 243.498 60.7472C243.003 60.2131 242.316 59.946 241.435 59.946C240.833 59.946 240.293 60.0739 239.816 60.3295C239.344 60.5852 238.972 60.9602 238.699 61.4545C238.432 61.9432 238.299 62.5341 238.299 63.2273ZM255.75 75.9091C255.37 75.9091 255.023 75.8778 254.711 75.8153C254.398 75.7585 254.165 75.696 254.012 75.6278L254.625 73.5398C255.091 73.6648 255.506 73.7188 255.87 73.7017C256.233 73.6847 256.554 73.5483 256.833 73.2926C257.117 73.0369 257.367 72.6193 257.583 72.0398L257.898 71.1705L253.108 57.9091H255.836L259.151 68.0682H259.287L262.603 57.9091H265.338L259.944 72.7472C259.694 73.429 259.375 74.0057 258.989 74.4773C258.603 74.9545 258.142 75.3125 257.608 75.5511C257.074 75.7898 256.455 75.9091 255.75 75.9091ZM271.602 71.2642C270.375 71.2642 269.304 70.983 268.389 70.4205C267.474 69.858 266.764 69.071 266.259 68.0597C265.753 67.0483 265.5 65.8665 265.5 64.5142C265.5 63.1562 265.753 61.9687 266.259 60.9517C266.764 59.9347 267.474 59.1449 268.389 58.5824C269.304 58.0199 270.375 57.7386 271.602 57.7386C272.83 57.7386 273.901 58.0199 274.815 58.5824C275.73 59.1449 276.44 59.9347 276.946 60.9517C277.452 61.9687 277.705 63.1562 277.705 64.5142C277.705 65.8665 277.452 67.0483 276.946 68.0597C276.44 69.071 275.73 69.858 274.815 70.4205C273.901 70.983 272.83 71.2642 271.602 71.2642ZM271.611 69.125C272.406 69.125 273.065 68.9148 273.588 68.4943C274.111 68.0739 274.497 67.5142 274.747 66.8153C275.003 66.1165 275.131 65.3466 275.131 64.5057C275.131 63.6705 275.003 62.9034 274.747 62.2045C274.497 61.5 274.111 60.9347 273.588 60.5085C273.065 60.0824 272.406 59.8693 271.611 59.8693C270.81 59.8693 270.145 60.0824 269.616 60.5085C269.094 60.9347 268.705 61.5 268.449 62.2045C268.199 62.9034 268.074 63.6705 268.074 64.5057C268.074 65.3466 268.199 66.1165 268.449 66.8153C268.705 67.5142 269.094 68.0739 269.616 68.4943C270.145 68.9148 270.81 69.125 271.611 69.125ZM287.642 65.571V57.9091H290.198V71H287.693V68.733H287.556C287.255 69.4318 286.772 70.0142 286.108 70.4801C285.448 70.9403 284.627 71.1705 283.644 71.1705C282.804 71.1705 282.059 70.9858 281.412 70.6165C280.769 70.2415 280.264 69.6875 279.894 68.9545C279.531 68.2216 279.349 67.3153 279.349 66.2358V57.9091H281.897V65.929C281.897 66.821 282.144 67.5312 282.639 68.0597C283.133 68.5881 283.775 68.8523 284.565 68.8523C285.042 68.8523 285.517 68.733 285.988 68.4943C286.465 68.2557 286.86 67.8949 287.173 67.4119C287.491 66.929 287.647 66.3153 287.642 65.571ZM292.422 71V57.9091H294.886V59.9886H295.022C295.261 59.2841 295.681 58.7301 296.283 58.3267C296.891 57.9176 297.579 57.7131 298.346 57.7131C298.505 57.7131 298.692 57.7187 298.908 57.7301C299.13 57.7415 299.303 57.7557 299.428 57.7727V60.2102C299.326 60.1818 299.144 60.1506 298.883 60.1165C298.621 60.0767 298.36 60.0568 298.099 60.0568C297.496 60.0568 296.959 60.1847 296.488 60.4403C296.022 60.6903 295.653 61.0398 295.38 61.4886C295.107 61.9318 294.971 62.4375 294.971 63.0057V71H292.422ZM311.099 71.2642C309.832 71.2642 308.741 70.9773 307.826 70.4034C306.917 69.8239 306.218 69.0256 305.73 68.0085C305.241 66.9915 304.997 65.8267 304.997 64.5142C304.997 63.1847 305.247 62.0114 305.747 60.9943C306.247 59.9716 306.951 59.1733 307.861 58.5994C308.77 58.0256 309.841 57.7386 311.074 57.7386C312.068 57.7386 312.954 57.9233 313.733 58.2926C314.511 58.6562 315.139 59.1676 315.616 59.8267C316.099 60.4858 316.386 61.2557 316.477 62.1364H313.997C313.861 61.5227 313.548 60.9943 313.059 60.5511C312.576 60.108 311.929 59.8864 311.116 59.8864C310.406 59.8864 309.784 60.0739 309.25 60.4489C308.721 60.8182 308.309 61.3466 308.014 62.0341C307.718 62.7159 307.571 63.5227 307.571 64.4545C307.571 65.4091 307.716 66.233 308.005 66.9261C308.295 67.6193 308.704 68.1562 309.233 68.5369C309.767 68.9176 310.395 69.108 311.116 69.108C311.599 69.108 312.037 69.0199 312.429 68.8438C312.826 68.6619 313.159 68.4034 313.426 68.0682C313.699 67.733 313.889 67.3295 313.997 66.858H316.477C316.386 67.7045 316.111 68.4602 315.65 69.125C315.19 69.7898 314.574 70.3125 313.801 70.6932C313.034 71.0739 312.133 71.2642 311.099 71.2642ZM326.295 65.571V57.9091H328.852V71H326.346V68.733H326.21C325.908 69.4318 325.425 70.0142 324.761 70.4801C324.102 70.9403 323.281 71.1705 322.298 71.1705C321.457 71.1705 320.712 70.9858 320.065 70.6165C319.423 70.2415 318.917 69.6875 318.548 68.9545C318.184 68.2216 318.002 67.3153 318.002 66.2358V57.9091H320.55V65.929C320.55 66.821 320.798 67.5312 321.292 68.0597C321.786 68.5881 322.428 68.8523 323.218 68.8523C323.695 68.8523 324.17 68.733 324.641 68.4943C325.119 68.2557 325.513 67.8949 325.826 67.4119C326.144 66.929 326.3 66.3153 326.295 65.571ZM331.076 71V57.9091H333.539V59.9886H333.675C333.914 59.2841 334.334 58.7301 334.936 58.3267C335.544 57.9176 336.232 57.7131 336.999 57.7131C337.158 57.7131 337.345 57.7187 337.561 57.7301C337.783 57.7415 337.956 57.7557 338.081 57.7727V60.2102C337.979 60.1818 337.797 60.1506 337.536 60.1165C337.274 60.0767 337.013 60.0568 336.752 60.0568C336.149 60.0568 335.612 60.1847 335.141 60.4403C334.675 60.6903 334.306 61.0398 334.033 61.4886C333.76 61.9318 333.624 62.4375 333.624 63.0057V71H331.076ZM339.087 71V57.9091H341.55V59.9886H341.686C341.925 59.2841 342.345 58.7301 342.947 58.3267C343.555 57.9176 344.243 57.7131 345.01 57.7131C345.169 57.7131 345.356 57.7187 345.572 57.7301C345.794 57.7415 345.967 57.7557 346.092 57.7727V60.2102C345.99 60.1818 345.808 60.1506 345.547 60.1165C345.285 60.0767 345.024 60.0568 344.763 60.0568C344.16 60.0568 343.623 60.1847 343.152 60.4403C342.686 60.6903 342.317 61.0398 342.044 61.4886C341.771 61.9318 341.635 62.4375 341.635 63.0057V71H339.087ZM352.271 71.2642C350.981 71.2642 349.87 70.9886 348.938 70.4375C348.012 69.8807 347.296 69.0994 346.791 68.0938C346.291 67.0824 346.041 65.8977 346.041 64.5398C346.041 63.1989 346.291 62.017 346.791 60.9943C347.296 59.9716 348.001 59.1733 348.904 58.5994C349.813 58.0256 350.876 57.7386 352.092 57.7386C352.83 57.7386 353.546 57.8608 354.239 58.1051C354.933 58.3494 355.555 58.733 356.106 59.2557C356.657 59.7784 357.092 60.4574 357.41 61.2926C357.728 62.1222 357.887 63.1307 357.887 64.3182V65.2216H347.481V63.3125H355.39C355.39 62.642 355.254 62.0483 354.981 61.5312C354.708 61.0085 354.325 60.5966 353.83 60.2955C353.342 59.9943 352.768 59.8438 352.109 59.8438C351.393 59.8438 350.768 60.0199 350.234 60.3722C349.705 60.7187 349.296 61.1733 349.007 61.7358C348.722 62.2926 348.58 62.8977 348.58 63.5511V65.0426C348.58 65.9176 348.734 66.6619 349.041 67.2756C349.353 67.8892 349.788 68.358 350.345 68.6818C350.901 69 351.552 69.1591 352.296 69.1591C352.779 69.1591 353.22 69.0909 353.617 68.9545C354.015 68.8125 354.359 68.6023 354.649 68.3239C354.938 68.0455 355.16 67.7017 355.313 67.2926L357.725 67.7273C357.532 68.4375 357.186 69.0597 356.686 69.5938C356.191 70.1222 355.569 70.5341 354.819 70.8295C354.075 71.1193 353.225 71.2642 352.271 71.2642ZM362.063 63.2273V71H359.515V57.9091H361.961V60.0398H362.123C362.424 59.3466 362.895 58.7898 363.537 58.3693C364.185 57.9489 365 57.7386 365.983 57.7386C366.875 57.7386 367.657 57.9261 368.327 58.3011C368.998 58.6705 369.517 59.2216 369.887 59.9545C370.256 60.6875 370.441 61.5937 370.441 62.6733V71H367.892V62.9801C367.892 62.0312 367.645 61.2898 367.151 60.7557C366.657 60.2159 365.978 59.946 365.114 59.946C364.523 59.946 363.998 60.0739 363.537 60.3295C363.083 60.5852 362.722 60.9602 362.455 61.4545C362.194 61.9432 362.063 62.5341 362.063 63.2273ZM378.769 57.9091V59.9545H371.619V57.9091H378.769ZM373.536 54.7727H376.085V67.1562C376.085 67.6506 376.158 68.0227 376.306 68.2727C376.454 68.517 376.644 68.6847 376.877 68.7756C377.116 68.8608 377.374 68.9034 377.653 68.9034C377.857 68.9034 378.036 68.8892 378.19 68.8608C378.343 68.8324 378.462 68.8097 378.548 68.7926L379.008 70.8977C378.86 70.9545 378.65 71.0114 378.377 71.0682C378.104 71.1307 377.763 71.1648 377.354 71.1705C376.684 71.1818 376.059 71.0625 375.479 70.8125C374.9 70.5625 374.431 70.1761 374.073 69.6534C373.715 69.1307 373.536 68.4744 373.536 67.6847V54.7727ZM395.349 61.1051L393.04 61.5142C392.943 61.2187 392.79 60.9375 392.579 60.6705C392.375 60.4034 392.096 60.1847 391.744 60.0142C391.392 59.8437 390.952 59.7585 390.423 59.7585C389.702 59.7585 389.099 59.9205 388.616 60.2443C388.133 60.5625 387.892 60.9744 387.892 61.4801C387.892 61.9176 388.054 62.2699 388.378 62.5369C388.702 62.804 389.224 63.0227 389.946 63.1932L392.025 63.6705C393.23 63.9489 394.128 64.3778 394.719 64.9574C395.31 65.5369 395.605 66.2898 395.605 67.2159C395.605 68 395.378 68.6989 394.923 69.3125C394.474 69.9205 393.846 70.3977 393.04 70.7443C392.239 71.0909 391.31 71.2642 390.253 71.2642C388.787 71.2642 387.591 70.9517 386.665 70.3267C385.739 69.696 385.17 68.8011 384.96 67.642L387.423 67.267C387.577 67.9091 387.892 68.3949 388.369 68.7244C388.846 69.0483 389.469 69.2102 390.236 69.2102C391.071 69.2102 391.739 69.0369 392.239 68.6903C392.739 68.3381 392.989 67.9091 392.989 67.4034C392.989 66.9943 392.835 66.6506 392.528 66.3722C392.227 66.0937 391.764 65.8835 391.139 65.7415L388.923 65.2557C387.702 64.9773 386.798 64.5341 386.213 63.9261C385.633 63.3182 385.344 62.5483 385.344 61.6165C385.344 60.8437 385.56 60.1676 385.991 59.5881C386.423 59.0085 387.02 58.5568 387.781 58.233C388.542 57.9034 389.415 57.7386 390.398 57.7386C391.812 57.7386 392.926 58.0455 393.739 58.6591C394.551 59.267 395.088 60.0824 395.349 61.1051ZM402.721 71.2642C401.494 71.2642 400.423 70.983 399.508 70.4205C398.593 69.858 397.883 69.071 397.377 68.0597C396.872 67.0483 396.619 65.8665 396.619 64.5142C396.619 63.1562 396.872 61.9687 397.377 60.9517C397.883 59.9347 398.593 59.1449 399.508 58.5824C400.423 58.0199 401.494 57.7386 402.721 57.7386C403.948 57.7386 405.019 58.0199 405.934 58.5824C406.849 59.1449 407.559 59.9347 408.065 60.9517C408.57 61.9687 408.823 63.1562 408.823 64.5142C408.823 65.8665 408.57 67.0483 408.065 68.0597C407.559 69.071 406.849 69.858 405.934 70.4205C405.019 70.983 403.948 71.2642 402.721 71.2642ZM402.73 69.125C403.525 69.125 404.184 68.9148 404.707 68.4943C405.23 68.0739 405.616 67.5142 405.866 66.8153C406.122 66.1165 406.249 65.3466 406.249 64.5057C406.249 63.6705 406.122 62.9034 405.866 62.2045C405.616 61.5 405.23 60.9347 404.707 60.5085C404.184 60.0824 403.525 59.8693 402.73 59.8693C401.928 59.8693 401.264 60.0824 400.735 60.5085C400.212 60.9347 399.823 61.5 399.568 62.2045C399.318 62.9034 399.193 63.6705 399.193 64.5057C399.193 65.3466 399.318 66.1165 399.568 66.8153C399.823 67.5142 400.212 68.0739 400.735 68.4943C401.264 68.9148 401.928 69.125 402.73 69.125ZM416.698 57.9091V59.9545H409.3V57.9091H416.698ZM411.329 71V56.392C411.329 55.5739 411.508 54.8949 411.865 54.3551C412.223 53.8097 412.698 53.4034 413.289 53.1364C413.88 52.8636 414.522 52.7273 415.215 52.7273C415.726 52.7273 416.164 52.7699 416.527 52.8551C416.891 52.9347 417.161 53.0085 417.337 53.0767L416.74 55.1392C416.621 55.1051 416.468 55.0653 416.28 55.0199C416.093 54.9687 415.865 54.9432 415.598 54.9432C414.979 54.9432 414.536 55.0966 414.269 55.4034C414.008 55.7102 413.877 56.1534 413.877 56.733V71H411.329ZM424.238 57.9091V59.9545H417.087V57.9091H424.238ZM419.005 54.7727H421.553V67.1562C421.553 67.6506 421.627 68.0227 421.775 68.2727C421.923 68.517 422.113 68.6847 422.346 68.7756C422.585 68.8608 422.843 68.9034 423.121 68.9034C423.326 68.9034 423.505 68.8892 423.658 68.8608C423.812 68.8324 423.931 68.8097 424.016 68.7926L424.477 70.8977C424.329 70.9545 424.119 71.0114 423.846 71.0682C423.573 71.1307 423.232 71.1648 422.823 71.1705C422.153 71.1818 421.528 71.0625 420.948 70.8125C420.369 70.5625 419.9 70.1761 419.542 69.6534C419.184 69.1307 419.005 68.4744 419.005 67.6847V54.7727ZM428.695 71L424.843 57.9091H427.476L430.041 67.5227H430.169L432.743 57.9091H435.377L437.934 67.4801H438.061L440.61 57.9091H443.243L439.399 71H436.8L434.141 61.5483H433.945L431.286 71H428.695ZM448.271 71.2898C447.442 71.2898 446.692 71.1364 446.021 70.8295C445.351 70.517 444.819 70.0653 444.427 69.4744C444.041 68.8835 443.848 68.1591 443.848 67.3011C443.848 66.5625 443.99 65.9545 444.274 65.4773C444.558 65 444.942 64.6222 445.425 64.3438C445.908 64.0653 446.447 63.8551 447.044 63.7131C447.64 63.571 448.248 63.4631 448.868 63.3892C449.652 63.2983 450.288 63.2244 450.777 63.1676C451.265 63.1051 451.621 63.0057 451.842 62.8693C452.064 62.733 452.175 62.5114 452.175 62.2045V62.1449C452.175 61.4006 451.964 60.8239 451.544 60.4148C451.129 60.0057 450.51 59.8011 449.686 59.8011C448.828 59.8011 448.152 59.9915 447.658 60.3722C447.169 60.7472 446.831 61.1648 446.643 61.625L444.248 61.0795C444.533 60.2841 444.947 59.642 445.493 59.1534C446.044 58.6591 446.677 58.3011 447.393 58.0795C448.109 57.8523 448.862 57.7386 449.652 57.7386C450.175 57.7386 450.729 57.8011 451.314 57.9261C451.905 58.0455 452.456 58.267 452.967 58.5909C453.484 58.9148 453.908 59.3778 454.237 59.9801C454.567 60.5767 454.731 61.3523 454.731 62.3068V71H452.243V69.2102H452.14C451.976 69.5398 451.729 69.8636 451.399 70.1818C451.069 70.5 450.646 70.7642 450.129 70.9744C449.612 71.1847 448.993 71.2898 448.271 71.2898ZM448.825 69.2443C449.53 69.2443 450.132 69.1051 450.632 68.8267C451.138 68.5483 451.521 68.1847 451.783 67.7358C452.05 67.2812 452.183 66.7955 452.183 66.2784V64.5909C452.092 64.6818 451.916 64.767 451.655 64.8466C451.399 64.9205 451.106 64.9858 450.777 65.0426C450.447 65.0937 450.126 65.142 449.814 65.1875C449.501 65.2273 449.24 65.2614 449.03 65.2898C448.535 65.3523 448.084 65.4574 447.675 65.6051C447.271 65.7528 446.947 65.9659 446.703 66.2443C446.464 66.517 446.345 66.8807 446.345 67.3352C446.345 67.9659 446.578 68.4432 447.044 68.767C447.51 69.0852 448.104 69.2443 448.825 69.2443ZM456.926 71V57.9091H459.389V59.9886H459.525C459.764 59.2841 460.184 58.7301 460.786 58.3267C461.394 57.9176 462.082 57.7131 462.849 57.7131C463.008 57.7131 463.195 57.7187 463.411 57.7301C463.633 57.7415 463.806 57.7557 463.931 57.7727V60.2102C463.829 60.1818 463.647 60.1506 463.386 60.1165C463.124 60.0767 462.863 60.0568 462.602 60.0568C461.999 60.0568 461.462 60.1847 460.991 60.4403C460.525 60.6903 460.156 61.0398 459.883 61.4886C459.61 61.9318 459.474 62.4375 459.474 63.0057V71H456.926ZM470.11 71.2642C468.82 71.2642 467.709 70.9886 466.777 70.4375C465.851 69.8807 465.135 69.0994 464.63 68.0938C464.13 67.0824 463.88 65.8977 463.88 64.5398C463.88 63.1989 464.13 62.017 464.63 60.9943C465.135 59.9716 465.84 59.1733 466.743 58.5994C467.652 58.0256 468.715 57.7386 469.931 57.7386C470.669 57.7386 471.385 57.8608 472.079 58.1051C472.772 58.3494 473.394 58.733 473.945 59.2557C474.496 59.7784 474.931 60.4574 475.249 61.2926C475.567 62.1222 475.726 63.1307 475.726 64.3182V65.2216H465.32V63.3125H473.229C473.229 62.642 473.093 62.0483 472.82 61.5312C472.547 61.0085 472.164 60.5966 471.669 60.2955C471.181 59.9943 470.607 59.8438 469.948 59.8438C469.232 59.8438 468.607 60.0199 468.073 60.3722C467.544 60.7187 467.135 61.1733 466.846 61.7358C466.562 62.2926 466.419 62.8977 466.419 63.5511V65.0426C466.419 65.9176 466.573 66.6619 466.88 67.2756C467.192 67.8892 467.627 68.358 468.184 68.6818C468.74 69 469.391 69.1591 470.135 69.1591C470.618 69.1591 471.059 69.0909 471.456 68.9545C471.854 68.8125 472.198 68.6023 472.488 68.3239C472.777 68.0455 472.999 67.7017 473.152 67.2926L475.564 67.7273C475.371 68.4375 475.025 69.0597 474.525 69.5938C474.03 70.1222 473.408 70.5341 472.658 70.8295C471.914 71.1193 471.064 71.2642 470.11 71.2642ZM480.141 65.9801V65.8182C480.152 64.7614 480.257 63.9205 480.456 63.2955C480.661 62.6705 480.95 62.1648 481.325 61.7784C481.7 61.392 482.152 61.0398 482.68 60.7216C483.021 60.5057 483.328 60.2642 483.601 59.9972C483.874 59.7301 484.089 59.4233 484.249 59.0767C484.408 58.7301 484.487 58.3466 484.487 57.9261C484.487 57.4205 484.368 56.983 484.129 56.6136C483.891 56.2443 483.572 55.9602 483.175 55.7614C482.783 55.5568 482.345 55.4545 481.862 55.4545C481.425 55.4545 481.007 55.5455 480.609 55.7273C480.212 55.9091 479.882 56.1932 479.621 56.5795C479.359 56.9602 479.209 57.4517 479.169 58.054H476.578C476.618 57.0312 476.876 56.1676 477.354 55.4631C477.831 54.7528 478.462 54.2159 479.246 53.8523C480.036 53.4886 480.908 53.3068 481.862 53.3068C482.908 53.3068 483.822 53.5028 484.607 53.8949C485.391 54.2812 485.999 54.8239 486.43 55.5227C486.868 56.2159 487.087 57.0256 487.087 57.9517C487.087 58.5881 486.987 59.1619 486.788 59.6733C486.589 60.179 486.305 60.6307 485.936 61.0284C485.572 61.4261 485.135 61.7784 484.624 62.0852C484.141 62.3864 483.749 62.6989 483.447 63.0227C483.152 63.3466 482.936 63.7301 482.8 64.1733C482.663 64.6165 482.589 65.1648 482.578 65.8182V65.9801H480.141ZM481.428 71.1619C480.962 71.1619 480.561 70.9972 480.226 70.6676C479.891 70.3324 479.723 69.929 479.723 69.4574C479.723 68.9915 479.891 68.5937 480.226 68.2642C480.561 67.929 480.962 67.7614 481.428 67.7614C481.888 67.7614 482.286 67.929 482.621 68.2642C482.962 68.5937 483.132 68.9915 483.132 69.4574C483.132 69.7699 483.053 70.0568 482.893 70.3182C482.74 70.5739 482.536 70.7784 482.28 70.9318C482.024 71.0852 481.74 71.1619 481.428 71.1619Z" fill="black"/>
<path d="M59.4375 99.1307C59.3466 98.3239 58.9716 97.6989 58.3125 97.2557C57.6534 96.8068 56.8239 96.5824 55.8239 96.5824C55.108 96.5824 54.4886 96.696 53.9659 96.9233C53.4432 97.1449 53.0369 97.4517 52.7472 97.8438C52.4631 98.2301 52.321 98.6705 52.321 99.1648C52.321 99.5795 52.4176 99.9375 52.6108 100.239C52.8097 100.54 53.0682 100.793 53.3864 100.997C53.7102 101.196 54.0568 101.364 54.4261 101.5C54.7955 101.631 55.1506 101.739 55.4915 101.824L57.196 102.267C57.7528 102.403 58.3239 102.588 58.9091 102.821C59.4943 103.054 60.0369 103.361 60.5369 103.741C61.0369 104.122 61.4403 104.594 61.7472 105.156C62.0597 105.719 62.2159 106.392 62.2159 107.176C62.2159 108.165 61.9602 109.043 61.4489 109.81C60.9432 110.577 60.2074 111.182 59.2415 111.625C58.2813 112.068 57.1193 112.29 55.7557 112.29C54.4489 112.29 53.3182 112.082 52.3636 111.668C51.4091 111.253 50.6619 110.665 50.1222 109.903C49.5824 109.136 49.2841 108.227 49.2273 107.176H51.8693C51.9205 107.807 52.125 108.332 52.483 108.753C52.8466 109.168 53.3097 109.477 53.8722 109.682C54.4403 109.881 55.0625 109.98 55.7386 109.98C56.483 109.98 57.1449 109.864 57.7244 109.631C58.3097 109.392 58.7699 109.062 59.1051 108.642C59.4403 108.216 59.608 107.719 59.608 107.151C59.608 106.634 59.4602 106.21 59.1648 105.881C58.875 105.551 58.4801 105.278 57.9801 105.062C57.4858 104.847 56.9261 104.656 56.3011 104.491L54.2386 103.929C52.8409 103.548 51.733 102.989 50.9148 102.25C50.1023 101.511 49.696 100.534 49.696 99.3182C49.696 98.3125 49.9688 97.4347 50.5142 96.6847C51.0597 95.9347 51.7983 95.3523 52.7301 94.9375C53.6619 94.517 54.7131 94.3068 55.8835 94.3068C57.0653 94.3068 58.108 94.5142 59.0114 94.929C59.9205 95.3438 60.6364 95.9148 61.1591 96.642C61.6818 97.3636 61.9545 98.1932 61.9773 99.1307H59.4375ZM72.251 106.571V98.9091H74.8078V112H72.3021V109.733H72.1658C71.8646 110.432 71.3817 111.014 70.7169 111.48C70.0578 111.94 69.2368 112.17 68.2538 112.17C67.4129 112.17 66.6686 111.986 66.0209 111.616C65.3788 111.241 64.8732 110.688 64.5038 109.955C64.1402 109.222 63.9584 108.315 63.9584 107.236V98.9091H66.5067V106.929C66.5067 107.821 66.7538 108.531 67.2482 109.06C67.7425 109.588 68.3845 109.852 69.1743 109.852C69.6516 109.852 70.126 109.733 70.5976 109.494C71.0749 109.256 71.4697 108.895 71.7822 108.412C72.1004 107.929 72.2567 107.315 72.251 106.571ZM77.0318 112V98.9091H79.4949V100.989H79.6313C79.8699 100.284 80.2903 99.7301 80.8926 99.3267C81.5006 98.9176 82.1881 98.7131 82.9551 98.7131C83.1142 98.7131 83.3017 98.7187 83.5176 98.7301C83.7392 98.7415 83.9125 98.7557 84.0375 98.7727V101.21C83.9352 101.182 83.7534 101.151 83.492 101.116C83.2307 101.077 82.9693 101.057 82.708 101.057C82.1057 101.057 81.5688 101.185 81.0972 101.44C80.6313 101.69 80.2619 102.04 79.9892 102.489C79.7165 102.932 79.5801 103.437 79.5801 104.006V112H77.0318ZM96.6401 98.9091L91.8929 112H89.1656L84.4099 98.9091H87.1457L90.4611 108.983H90.5974L93.9043 98.9091H96.6401ZM103.032 112.264C101.742 112.264 100.631 111.989 99.6993 111.438C98.7732 110.881 98.0572 110.099 97.5516 109.094C97.0516 108.082 96.8016 106.898 96.8016 105.54C96.8016 104.199 97.0516 103.017 97.5516 101.994C98.0572 100.972 98.7618 100.173 99.6652 99.5994C100.574 99.0256 101.637 98.7386 102.853 98.7386C103.591 98.7386 104.307 98.8608 105 99.1051C105.694 99.3494 106.316 99.733 106.867 100.256C107.418 100.778 107.853 101.457 108.171 102.293C108.489 103.122 108.648 104.131 108.648 105.318V106.222H98.2419V104.312H106.151C106.151 103.642 106.015 103.048 105.742 102.531C105.469 102.009 105.086 101.597 104.591 101.295C104.103 100.994 103.529 100.844 102.87 100.844C102.154 100.844 101.529 101.02 100.995 101.372C100.466 101.719 100.057 102.173 99.7675 102.736C99.4834 103.293 99.3413 103.898 99.3413 104.551V106.043C99.3413 106.918 99.4947 107.662 99.8016 108.276C100.114 108.889 100.549 109.358 101.106 109.682C101.662 110 102.313 110.159 103.057 110.159C103.54 110.159 103.981 110.091 104.378 109.955C104.776 109.812 105.12 109.602 105.41 109.324C105.699 109.045 105.921 108.702 106.074 108.293L108.486 108.727C108.293 109.437 107.946 110.06 107.446 110.594C106.952 111.122 106.33 111.534 105.58 111.83C104.836 112.119 103.986 112.264 103.032 112.264ZM111.511 116.909C111.131 116.909 110.784 116.878 110.472 116.815C110.159 116.759 109.926 116.696 109.773 116.628L110.386 114.54C110.852 114.665 111.267 114.719 111.631 114.702C111.994 114.685 112.315 114.548 112.594 114.293C112.878 114.037 113.128 113.619 113.344 113.04L113.659 112.17L108.869 98.9091H111.597L114.912 109.068H115.048L118.364 98.9091H121.099L115.705 113.747C115.455 114.429 115.136 115.006 114.75 115.477C114.364 115.955 113.903 116.313 113.369 116.551C112.835 116.79 112.216 116.909 111.511 116.909ZM127.446 112V98.9091H129.909V100.989H130.045C130.284 100.284 130.704 99.7301 131.307 99.3267C131.915 98.9176 132.602 98.7131 133.369 98.7131C133.528 98.7131 133.716 98.7187 133.932 98.7301C134.153 98.7415 134.327 98.7557 134.452 98.7727V101.21C134.349 101.182 134.167 101.151 133.906 101.116C133.645 101.077 133.383 101.057 133.122 101.057C132.52 101.057 131.983 101.185 131.511 101.44C131.045 101.69 130.676 102.04 130.403 102.489C130.131 102.932 129.994 103.437 129.994 104.006V112H127.446ZM140.63 112.264C139.34 112.264 138.23 111.989 137.298 111.438C136.372 110.881 135.656 110.099 135.15 109.094C134.65 108.082 134.4 106.898 134.4 105.54C134.4 104.199 134.65 103.017 135.15 101.994C135.656 100.972 136.36 100.173 137.264 99.5994C138.173 99.0256 139.235 98.7386 140.451 98.7386C141.19 98.7386 141.906 98.8608 142.599 99.1051C143.292 99.3494 143.914 99.733 144.465 100.256C145.016 100.778 145.451 101.457 145.769 102.293C146.088 103.122 146.247 104.131 146.247 105.318V106.222H135.84V104.312H143.749C143.749 103.642 143.613 103.048 143.34 102.531C143.068 102.009 142.684 101.597 142.19 101.295C141.701 100.994 141.127 100.844 140.468 100.844C139.752 100.844 139.127 101.02 138.593 101.372C138.065 101.719 137.656 102.173 137.366 102.736C137.082 103.293 136.94 103.898 136.94 104.551V106.043C136.94 106.918 137.093 107.662 137.4 108.276C137.713 108.889 138.147 109.358 138.704 109.682C139.261 110 139.911 110.159 140.656 110.159C141.139 110.159 141.579 110.091 141.977 109.955C142.374 109.812 142.718 109.602 143.008 109.324C143.298 109.045 143.519 108.702 143.673 108.293L146.085 108.727C145.891 109.437 145.545 110.06 145.045 110.594C144.551 111.122 143.928 111.534 143.178 111.83C142.434 112.119 141.585 112.264 140.63 112.264ZM157.684 102.105L155.374 102.514C155.277 102.219 155.124 101.937 154.914 101.67C154.709 101.403 154.431 101.185 154.079 101.014C153.726 100.844 153.286 100.759 152.758 100.759C152.036 100.759 151.434 100.92 150.951 101.244C150.468 101.562 150.226 101.974 150.226 102.48C150.226 102.918 150.388 103.27 150.712 103.537C151.036 103.804 151.559 104.023 152.28 104.193L154.36 104.67C155.564 104.949 156.462 105.378 157.053 105.957C157.644 106.537 157.939 107.29 157.939 108.216C157.939 109 157.712 109.699 157.258 110.312C156.809 110.92 156.181 111.398 155.374 111.744C154.573 112.091 153.644 112.264 152.587 112.264C151.121 112.264 149.925 111.952 148.999 111.327C148.073 110.696 147.505 109.801 147.294 108.642L149.758 108.267C149.911 108.909 150.226 109.395 150.704 109.724C151.181 110.048 151.803 110.21 152.57 110.21C153.405 110.21 154.073 110.037 154.573 109.69C155.073 109.338 155.323 108.909 155.323 108.403C155.323 107.994 155.169 107.651 154.863 107.372C154.562 107.094 154.098 106.884 153.473 106.741L151.258 106.256C150.036 105.977 149.133 105.534 148.547 104.926C147.968 104.318 147.678 103.548 147.678 102.616C147.678 101.844 147.894 101.168 148.326 100.588C148.758 100.009 149.354 99.5568 150.115 99.233C150.877 98.9034 151.749 98.7386 152.732 98.7386C154.147 98.7386 155.26 99.0455 156.073 99.6591C156.885 100.267 157.422 101.082 157.684 102.105ZM167.834 106.571V98.9091H170.391V112H167.885V109.733H167.749C167.447 110.432 166.964 111.014 166.3 111.48C165.641 111.94 164.82 112.17 163.837 112.17C162.996 112.17 162.251 111.986 161.604 111.616C160.962 111.241 160.456 110.688 160.087 109.955C159.723 109.222 159.541 108.315 159.541 107.236V98.9091H162.089V106.929C162.089 107.821 162.337 108.531 162.831 109.06C163.325 109.588 163.967 109.852 164.757 109.852C165.234 109.852 165.709 109.733 166.18 109.494C166.658 109.256 167.053 108.895 167.365 108.412C167.683 107.929 167.839 107.315 167.834 106.571ZM175.163 94.5455V112H172.615V94.5455H175.163ZM183.502 98.9091V100.955H176.351V98.9091H183.502ZM178.269 95.7727H180.817V108.156C180.817 108.651 180.891 109.023 181.039 109.273C181.187 109.517 181.377 109.685 181.61 109.776C181.849 109.861 182.107 109.903 182.386 109.903C182.59 109.903 182.769 109.889 182.922 109.861C183.076 109.832 183.195 109.81 183.28 109.793L183.741 111.898C183.593 111.955 183.383 112.011 183.11 112.068C182.837 112.131 182.496 112.165 182.087 112.17C181.417 112.182 180.792 112.062 180.212 111.812C179.633 111.562 179.164 111.176 178.806 110.653C178.448 110.131 178.269 109.474 178.269 108.685V95.7727ZM194.72 102.105L192.41 102.514C192.313 102.219 192.16 101.937 191.95 101.67C191.745 101.403 191.467 101.185 191.114 101.014C190.762 100.844 190.322 100.759 189.793 100.759C189.072 100.759 188.47 100.92 187.987 101.244C187.504 101.562 187.262 101.974 187.262 102.48C187.262 102.918 187.424 103.27 187.748 103.537C188.072 103.804 188.595 104.023 189.316 104.193L191.396 104.67C192.6 104.949 193.498 105.378 194.089 105.957C194.68 106.537 194.975 107.29 194.975 108.216C194.975 109 194.748 109.699 194.293 110.312C193.845 110.92 193.217 111.398 192.41 111.744C191.609 112.091 190.68 112.264 189.623 112.264C188.157 112.264 186.961 111.952 186.035 111.327C185.109 110.696 184.541 109.801 184.33 108.642L186.793 108.267C186.947 108.909 187.262 109.395 187.739 109.724C188.217 110.048 188.839 110.21 189.606 110.21C190.441 110.21 191.109 110.037 191.609 109.69C192.109 109.338 192.359 108.909 192.359 108.403C192.359 107.994 192.205 107.651 191.899 107.372C191.597 107.094 191.134 106.884 190.509 106.741L188.293 106.256C187.072 105.977 186.168 105.534 185.583 104.926C185.004 104.318 184.714 103.548 184.714 102.616C184.714 101.844 184.93 101.168 185.362 100.588C185.793 100.009 186.39 99.5568 187.151 99.233C187.913 98.9034 188.785 98.7386 189.768 98.7386C191.183 98.7386 192.296 99.0455 193.109 99.6591C193.921 100.267 194.458 101.082 194.72 102.105ZM201.933 112V94.5455H204.482V101.031H204.635C204.783 100.759 204.996 100.443 205.274 100.085C205.553 99.7273 205.939 99.4148 206.433 99.1477C206.928 98.875 207.581 98.7386 208.393 98.7386C209.45 98.7386 210.393 99.0057 211.223 99.5398C212.053 100.074 212.703 100.844 213.175 101.849C213.652 102.855 213.891 104.065 213.891 105.48C213.891 106.895 213.655 108.108 213.183 109.119C212.712 110.125 212.064 110.901 211.24 111.446C210.416 111.986 209.476 112.256 208.419 112.256C207.624 112.256 206.973 112.122 206.467 111.855C205.967 111.588 205.575 111.276 205.291 110.918C205.007 110.56 204.788 110.241 204.635 109.963H204.422V112H201.933ZM204.43 105.455C204.43 106.375 204.564 107.182 204.831 107.875C205.098 108.568 205.484 109.111 205.99 109.503C206.496 109.889 207.115 110.082 207.848 110.082C208.609 110.082 209.246 109.881 209.757 109.477C210.268 109.068 210.655 108.514 210.916 107.815C211.183 107.116 211.317 106.33 211.317 105.455C211.317 104.591 211.186 103.815 210.925 103.128C210.669 102.44 210.283 101.898 209.766 101.5C209.254 101.102 208.615 100.903 207.848 100.903C207.109 100.903 206.484 101.094 205.973 101.474C205.467 101.855 205.084 102.386 204.822 103.068C204.561 103.75 204.43 104.545 204.43 105.455ZM219.362 112.29C218.532 112.29 217.782 112.136 217.112 111.83C216.441 111.517 215.91 111.065 215.518 110.474C215.132 109.884 214.938 109.159 214.938 108.301C214.938 107.562 215.081 106.955 215.365 106.477C215.649 106 216.032 105.622 216.515 105.344C216.998 105.065 217.538 104.855 218.135 104.713C218.731 104.571 219.339 104.463 219.958 104.389C220.742 104.298 221.379 104.224 221.867 104.168C222.356 104.105 222.711 104.006 222.933 103.869C223.154 103.733 223.265 103.511 223.265 103.205V103.145C223.265 102.401 223.055 101.824 222.635 101.415C222.22 101.006 221.6 100.801 220.777 100.801C219.919 100.801 219.242 100.991 218.748 101.372C218.26 101.747 217.921 102.165 217.734 102.625L215.339 102.08C215.623 101.284 216.038 100.642 216.583 100.153C217.135 99.6591 217.768 99.3011 218.484 99.0795C219.2 98.8523 219.953 98.7386 220.742 98.7386C221.265 98.7386 221.819 98.8011 222.404 98.9261C222.995 99.0455 223.546 99.267 224.058 99.5909C224.575 99.9148 224.998 100.378 225.328 100.98C225.657 101.577 225.822 102.352 225.822 103.307V112H223.333V110.21H223.231C223.066 110.54 222.819 110.864 222.49 111.182C222.16 111.5 221.737 111.764 221.22 111.974C220.703 112.185 220.083 112.29 219.362 112.29ZM219.916 110.244C220.62 110.244 221.223 110.105 221.723 109.827C222.228 109.548 222.612 109.185 222.873 108.736C223.14 108.281 223.274 107.795 223.274 107.278V105.591C223.183 105.682 223.007 105.767 222.745 105.847C222.49 105.92 222.197 105.986 221.867 106.043C221.538 106.094 221.217 106.142 220.904 106.188C220.592 106.227 220.331 106.261 220.12 106.29C219.626 106.352 219.174 106.457 218.765 106.605C218.362 106.753 218.038 106.966 217.794 107.244C217.555 107.517 217.436 107.881 217.436 108.335C217.436 108.966 217.669 109.443 218.135 109.767C218.6 110.085 219.194 110.244 219.916 110.244ZM237.826 102.105L235.516 102.514C235.42 102.219 235.266 101.937 235.056 101.67C234.851 101.403 234.573 101.185 234.221 101.014C233.868 100.844 233.428 100.759 232.9 100.759C232.178 100.759 231.576 100.92 231.093 101.244C230.61 101.562 230.368 101.974 230.368 102.48C230.368 102.918 230.53 103.27 230.854 103.537C231.178 103.804 231.701 104.023 232.422 104.193L234.502 104.67C235.707 104.949 236.604 105.378 237.195 105.957C237.786 106.537 238.082 107.29 238.082 108.216C238.082 109 237.854 109.699 237.4 110.312C236.951 110.92 236.323 111.398 235.516 111.744C234.715 112.091 233.786 112.264 232.729 112.264C231.263 112.264 230.067 111.952 229.141 111.327C228.215 110.696 227.647 109.801 227.437 108.642L229.9 108.267C230.053 108.909 230.368 109.395 230.846 109.724C231.323 110.048 231.945 110.21 232.712 110.21C233.547 110.21 234.215 110.037 234.715 109.69C235.215 109.338 235.465 108.909 235.465 108.403C235.465 107.994 235.312 107.651 235.005 107.372C234.704 107.094 234.241 106.884 233.616 106.741L231.4 106.256C230.178 105.977 229.275 105.534 228.689 104.926C228.11 104.318 227.82 103.548 227.82 102.616C227.82 101.844 228.036 101.168 228.468 100.588C228.9 100.009 229.496 99.5568 230.258 99.233C231.019 98.9034 231.891 98.7386 232.874 98.7386C234.289 98.7386 235.403 99.0455 236.215 99.6591C237.028 100.267 237.564 101.082 237.826 102.105ZM245.325 112.264C244.036 112.264 242.925 111.989 241.993 111.438C241.067 110.881 240.351 110.099 239.845 109.094C239.345 108.082 239.095 106.898 239.095 105.54C239.095 104.199 239.345 103.017 239.845 101.994C240.351 100.972 241.056 100.173 241.959 99.5994C242.868 99.0256 243.931 98.7386 245.146 98.7386C245.885 98.7386 246.601 98.8608 247.294 99.1051C247.987 99.3494 248.61 99.733 249.161 100.256C249.712 100.778 250.146 101.457 250.465 102.293C250.783 103.122 250.942 104.131 250.942 105.318V106.222H240.536V104.312H248.445C248.445 103.642 248.308 103.048 248.036 102.531C247.763 102.009 247.379 101.597 246.885 101.295C246.396 100.994 245.823 100.844 245.163 100.844C244.448 100.844 243.823 101.02 243.288 101.372C242.76 101.719 242.351 102.173 242.061 102.736C241.777 103.293 241.635 103.898 241.635 104.551V106.043C241.635 106.918 241.788 107.662 242.095 108.276C242.408 108.889 242.842 109.358 243.399 109.682C243.956 110 244.607 110.159 245.351 110.159C245.834 110.159 246.274 110.091 246.672 109.955C247.07 109.812 247.413 109.602 247.703 109.324C247.993 109.045 248.215 108.702 248.368 108.293L250.78 108.727C250.587 109.437 250.24 110.06 249.74 110.594C249.246 111.122 248.624 111.534 247.874 111.83C247.129 112.119 246.28 112.264 245.325 112.264ZM257.47 112.256C256.413 112.256 255.47 111.986 254.64 111.446C253.816 110.901 253.169 110.125 252.697 109.119C252.231 108.108 251.998 106.895 251.998 105.48C251.998 104.065 252.234 102.855 252.706 101.849C253.183 100.844 253.836 100.074 254.666 99.5398C255.495 99.0057 256.436 98.7386 257.487 98.7386C258.299 98.7386 258.953 98.875 259.447 99.1477C259.947 99.4148 260.334 99.7273 260.606 100.085C260.885 100.443 261.101 100.759 261.254 101.031H261.407V94.5455H263.956V112H261.467V109.963H261.254C261.101 110.241 260.879 110.56 260.589 110.918C260.305 111.276 259.913 111.588 259.413 111.855C258.913 112.122 258.265 112.256 257.47 112.256ZM258.032 110.082C258.765 110.082 259.385 109.889 259.89 109.503C260.402 109.111 260.788 108.568 261.049 107.875C261.316 107.182 261.45 106.375 261.45 105.455C261.45 104.545 261.319 103.75 261.058 103.068C260.797 102.386 260.413 101.855 259.907 101.474C259.402 101.094 258.777 100.903 258.032 100.903C257.265 100.903 256.626 101.102 256.115 101.5C255.603 101.898 255.217 102.44 254.956 103.128C254.7 103.815 254.572 104.591 254.572 105.455C254.572 106.33 254.703 107.116 254.964 107.815C255.226 108.514 255.612 109.068 256.123 109.477C256.64 109.881 257.277 110.082 258.032 110.082ZM277.059 112.264C275.831 112.264 274.76 111.983 273.845 111.42C272.931 110.858 272.22 110.071 271.715 109.06C271.209 108.048 270.956 106.866 270.956 105.514C270.956 104.156 271.209 102.969 271.715 101.952C272.22 100.935 272.931 100.145 273.845 99.5824C274.76 99.0199 275.831 98.7386 277.059 98.7386C278.286 98.7386 279.357 99.0199 280.272 99.5824C281.186 100.145 281.897 100.935 282.402 101.952C282.908 102.969 283.161 104.156 283.161 105.514C283.161 106.866 282.908 108.048 282.402 109.06C281.897 110.071 281.186 110.858 280.272 111.42C279.357 111.983 278.286 112.264 277.059 112.264ZM277.067 110.125C277.863 110.125 278.522 109.915 279.044 109.494C279.567 109.074 279.953 108.514 280.203 107.815C280.459 107.116 280.587 106.347 280.587 105.506C280.587 104.67 280.459 103.903 280.203 103.205C279.953 102.5 279.567 101.935 279.044 101.509C278.522 101.082 277.863 100.869 277.067 100.869C276.266 100.869 275.601 101.082 275.073 101.509C274.55 101.935 274.161 102.5 273.905 103.205C273.655 103.903 273.53 104.67 273.53 105.506C273.53 106.347 273.655 107.116 273.905 107.815C274.161 108.514 274.55 109.074 275.073 109.494C275.601 109.915 276.266 110.125 277.067 110.125ZM287.354 104.227V112H284.805V98.9091H287.251V101.04H287.413C287.714 100.347 288.186 99.7898 288.828 99.3693C289.476 98.9489 290.291 98.7386 291.274 98.7386C292.166 98.7386 292.947 98.9261 293.618 99.3011C294.288 99.6705 294.808 100.222 295.177 100.955C295.547 101.687 295.731 102.594 295.731 103.673V112H293.183V103.98C293.183 103.031 292.936 102.29 292.442 101.756C291.947 101.216 291.268 100.946 290.405 100.946C289.814 100.946 289.288 101.074 288.828 101.33C288.373 101.585 288.013 101.96 287.746 102.455C287.484 102.943 287.354 103.534 287.354 104.227ZM303.066 112V110.091L308.973 103.972C309.603 103.307 310.123 102.724 310.532 102.224C310.947 101.719 311.257 101.239 311.461 100.784C311.666 100.33 311.768 99.8466 311.768 99.3352C311.768 98.7557 311.632 98.2557 311.359 97.8352C311.086 97.4091 310.714 97.0824 310.243 96.8551C309.771 96.6222 309.24 96.5057 308.649 96.5057C308.024 96.5057 307.478 96.6335 307.012 96.8892C306.547 97.1449 306.189 97.5057 305.939 97.9716C305.689 98.4375 305.564 98.983 305.564 99.608H303.049C303.049 98.5455 303.294 97.6165 303.782 96.821C304.271 96.0256 304.941 95.4091 305.794 94.9716C306.646 94.5284 307.615 94.3068 308.7 94.3068C309.797 94.3068 310.762 94.5256 311.598 94.9631C312.439 95.3949 313.095 95.9858 313.566 96.7358C314.038 97.4801 314.274 98.321 314.274 99.2585C314.274 99.9062 314.152 100.54 313.907 101.159C313.669 101.778 313.251 102.469 312.655 103.23C312.058 103.986 311.228 104.903 310.166 105.983L306.697 109.614V109.741H314.555V112H303.066ZM322.662 112.29C321.315 112.284 320.165 111.929 319.21 111.224C318.256 110.52 317.526 109.494 317.02 108.148C316.514 106.801 316.261 105.179 316.261 103.281C316.261 101.389 316.514 99.7727 317.02 98.4318C317.531 97.0909 318.264 96.0682 319.219 95.3636C320.179 94.6591 321.327 94.3068 322.662 94.3068C323.997 94.3068 325.142 94.6619 326.097 95.3722C327.051 96.0767 327.781 97.0994 328.287 98.4403C328.798 99.7756 329.054 101.389 329.054 103.281C329.054 105.185 328.801 106.81 328.295 108.156C327.79 109.497 327.06 110.523 326.105 111.233C325.151 111.938 324.003 112.29 322.662 112.29ZM322.662 110.014C323.844 110.014 324.767 109.438 325.432 108.284C326.102 107.131 326.438 105.463 326.438 103.281C326.438 101.832 326.284 100.608 325.977 99.608C325.676 98.6023 325.241 97.8409 324.673 97.3239C324.111 96.8011 323.44 96.5398 322.662 96.5398C321.486 96.5398 320.563 97.1193 319.892 98.2784C319.222 99.4375 318.884 101.105 318.878 103.281C318.878 104.736 319.028 105.966 319.33 106.972C319.636 107.972 320.071 108.73 320.634 109.247C321.196 109.759 321.872 110.014 322.662 110.014ZM336.954 112.29C335.608 112.284 334.457 111.929 333.502 111.224C332.548 110.52 331.818 109.494 331.312 108.148C330.806 106.801 330.554 105.179 330.554 103.281C330.554 101.389 330.806 99.7727 331.312 98.4318C331.823 97.0909 332.556 96.0682 333.511 95.3636C334.471 94.6591 335.619 94.3068 336.954 94.3068C338.289 94.3068 339.434 94.6619 340.389 95.3722C341.343 96.0767 342.073 97.0994 342.579 98.4403C343.09 99.7756 343.346 101.389 343.346 103.281C343.346 105.185 343.093 106.81 342.588 108.156C342.082 109.497 341.352 110.523 340.397 111.233C339.443 111.938 338.295 112.29 336.954 112.29ZM336.954 110.014C338.136 110.014 339.059 109.438 339.724 108.284C340.394 107.131 340.73 105.463 340.73 103.281C340.73 101.832 340.576 100.608 340.269 99.608C339.968 98.6023 339.534 97.8409 338.965 97.3239C338.403 96.8011 337.733 96.5398 336.954 96.5398C335.778 96.5398 334.855 97.1193 334.184 98.2784C333.514 99.4375 333.176 101.105 333.17 103.281C333.17 104.736 333.321 105.966 333.622 106.972C333.929 107.972 334.363 108.73 334.926 109.247C335.488 109.759 336.164 110.014 336.954 110.014ZM350.355 116.909V98.9091H352.844V101.031H353.057C353.205 100.759 353.418 100.443 353.696 100.085C353.975 99.7273 354.361 99.4148 354.855 99.1477C355.35 98.875 356.003 98.7386 356.815 98.7386C357.872 98.7386 358.815 99.0057 359.645 99.5398C360.475 100.074 361.125 100.844 361.597 101.849C362.074 102.855 362.313 104.065 362.313 105.48C362.313 106.895 362.077 108.108 361.605 109.119C361.134 110.125 360.486 110.901 359.662 111.446C358.838 111.986 357.898 112.256 356.841 112.256C356.046 112.256 355.395 112.122 354.889 111.855C354.389 111.588 353.997 111.276 353.713 110.918C353.429 110.56 353.21 110.241 353.057 109.963H352.904V116.909H350.355ZM352.852 105.455C352.852 106.375 352.986 107.182 353.253 107.875C353.52 108.568 353.906 109.111 354.412 109.503C354.918 109.889 355.537 110.082 356.27 110.082C357.031 110.082 357.668 109.881 358.179 109.477C358.69 109.068 359.077 108.514 359.338 107.815C359.605 107.116 359.739 106.33 359.739 105.455C359.739 104.591 359.608 103.815 359.347 103.128C359.091 102.44 358.705 101.898 358.188 101.5C357.676 101.102 357.037 100.903 356.27 100.903C355.531 100.903 354.906 101.094 354.395 101.474C353.889 101.855 353.506 102.386 353.244 103.068C352.983 103.75 352.852 104.545 352.852 105.455ZM367.777 112.29C366.948 112.29 366.198 112.136 365.527 111.83C364.857 111.517 364.326 111.065 363.934 110.474C363.547 109.884 363.354 109.159 363.354 108.301C363.354 107.562 363.496 106.955 363.78 106.477C364.064 106 364.448 105.622 364.931 105.344C365.414 105.065 365.954 104.855 366.55 104.713C367.147 104.571 367.755 104.463 368.374 104.389C369.158 104.298 369.794 104.224 370.283 104.168C370.772 104.105 371.127 104.006 371.348 103.869C371.57 103.733 371.681 103.511 371.681 103.205V103.145C371.681 102.401 371.471 101.824 371.05 101.415C370.635 101.006 370.016 100.801 369.192 100.801C368.334 100.801 367.658 100.991 367.164 101.372C366.675 101.747 366.337 102.165 366.15 102.625L363.755 102.08C364.039 101.284 364.454 100.642 364.999 100.153C365.55 99.6591 366.184 99.3011 366.9 99.0795C367.615 98.8523 368.368 98.7386 369.158 98.7386C369.681 98.7386 370.235 98.8011 370.82 98.9261C371.411 99.0455 371.962 99.267 372.473 99.5909C372.99 99.9148 373.414 100.378 373.743 100.98C374.073 101.577 374.238 102.352 374.238 103.307V112H371.749V110.21H371.647C371.482 110.54 371.235 110.864 370.905 111.182C370.576 111.5 370.152 111.764 369.635 111.974C369.118 112.185 368.499 112.29 367.777 112.29ZM368.331 110.244C369.036 110.244 369.638 110.105 370.138 109.827C370.644 109.548 371.027 109.185 371.289 108.736C371.556 108.281 371.689 107.795 371.689 107.278V105.591C371.598 105.682 371.422 105.767 371.161 105.847C370.905 105.92 370.613 105.986 370.283 106.043C369.954 106.094 369.633 106.142 369.32 106.188C369.008 106.227 368.746 106.261 368.536 106.29C368.042 106.352 367.59 106.457 367.181 106.605C366.777 106.753 366.454 106.966 366.209 107.244C365.971 107.517 365.851 107.881 365.851 108.335C365.851 108.966 366.084 109.443 366.55 109.767C367.016 110.085 367.61 110.244 368.331 110.244ZM376.432 112V98.9091H378.895V100.989H379.031C379.27 100.284 379.69 99.7301 380.293 99.3267C380.901 98.9176 381.588 98.7131 382.355 98.7131C382.514 98.7131 382.702 98.7187 382.918 98.7301C383.139 98.7415 383.312 98.7557 383.438 98.7727V101.21C383.335 101.182 383.153 101.151 382.892 101.116C382.631 101.077 382.369 101.057 382.108 101.057C381.506 101.057 380.969 101.185 380.497 101.44C380.031 101.69 379.662 102.04 379.389 102.489C379.116 102.932 378.98 103.437 378.98 104.006V112H376.432ZM391.327 98.9091V100.955H384.176V98.9091H391.327ZM386.094 95.7727H388.642V108.156C388.642 108.651 388.716 109.023 388.864 109.273C389.012 109.517 389.202 109.685 389.435 109.776C389.674 109.861 389.932 109.903 390.21 109.903C390.415 109.903 390.594 109.889 390.747 109.861C390.901 109.832 391.02 109.81 391.105 109.793L391.566 111.898C391.418 111.955 391.208 112.011 390.935 112.068C390.662 112.131 390.321 112.165 389.912 112.17C389.242 112.182 388.617 112.062 388.037 111.812C387.458 111.562 386.989 111.176 386.631 110.653C386.273 110.131 386.094 109.474 386.094 108.685V95.7727ZM392.946 112V98.9091H395.494V112H392.946ZM394.233 96.8892C393.79 96.8892 393.409 96.7415 393.091 96.446C392.778 96.1449 392.622 95.7869 392.622 95.3722C392.622 94.9517 392.778 94.5937 393.091 94.2983C393.409 93.9972 393.79 93.8466 394.233 93.8466C394.676 93.8466 395.054 93.9972 395.366 94.2983C395.685 94.5937 395.844 94.9517 395.844 95.3722C395.844 95.7869 395.685 96.1449 395.366 96.446C395.054 96.7415 394.676 96.8892 394.233 96.8892ZM403.237 112.264C401.97 112.264 400.879 111.977 399.964 111.403C399.055 110.824 398.356 110.026 397.867 109.009C397.379 107.991 397.134 106.827 397.134 105.514C397.134 104.185 397.384 103.011 397.884 101.994C398.384 100.972 399.089 100.173 399.998 99.5994C400.907 99.0256 401.978 98.7386 403.211 98.7386C404.205 98.7386 405.092 98.9233 405.87 99.2926C406.649 99.6562 407.276 100.168 407.754 100.827C408.237 101.486 408.524 102.256 408.614 103.136H406.134C405.998 102.523 405.686 101.994 405.197 101.551C404.714 101.108 404.066 100.886 403.254 100.886C402.543 100.886 401.921 101.074 401.387 101.449C400.859 101.818 400.447 102.347 400.151 103.034C399.856 103.716 399.708 104.523 399.708 105.455C399.708 106.409 399.853 107.233 400.143 107.926C400.433 108.619 400.842 109.156 401.37 109.537C401.904 109.918 402.532 110.108 403.254 110.108C403.737 110.108 404.174 110.02 404.566 109.844C404.964 109.662 405.296 109.403 405.563 109.068C405.836 108.733 406.026 108.33 406.134 107.858H408.614C408.524 108.705 408.248 109.46 407.788 110.125C407.328 110.79 406.711 111.312 405.938 111.693C405.171 112.074 404.271 112.264 403.237 112.264ZM410.14 112V98.9091H412.688V112H410.14ZM411.427 96.8892C410.983 96.8892 410.603 96.7415 410.285 96.446C409.972 96.1449 409.816 95.7869 409.816 95.3722C409.816 94.9517 409.972 94.5937 410.285 94.2983C410.603 93.9972 410.983 93.8466 411.427 93.8466C411.87 93.8466 412.248 93.9972 412.56 94.2983C412.878 94.5937 413.037 94.9517 413.037 95.3722C413.037 95.7869 412.878 96.1449 412.56 96.446C412.248 96.7415 411.87 96.8892 411.427 96.8892ZM414.916 116.909V98.9091H417.405V101.031H417.618C417.766 100.759 417.979 100.443 418.257 100.085C418.536 99.7273 418.922 99.4148 419.416 99.1477C419.911 98.875 420.564 98.7386 421.376 98.7386C422.433 98.7386 423.376 99.0057 424.206 99.5398C425.036 100.074 425.686 100.844 426.158 101.849C426.635 102.855 426.874 104.065 426.874 105.48C426.874 106.895 426.638 108.108 426.166 109.119C425.695 110.125 425.047 110.901 424.223 111.446C423.399 111.986 422.459 112.256 421.402 112.256C420.607 112.256 419.956 112.122 419.45 111.855C418.95 111.588 418.558 111.276 418.274 110.918C417.99 110.56 417.771 110.241 417.618 109.963H417.464V116.909H414.916ZM417.413 105.455C417.413 106.375 417.547 107.182 417.814 107.875C418.081 108.568 418.467 109.111 418.973 109.503C419.479 109.889 420.098 110.082 420.831 110.082C421.592 110.082 422.229 109.881 422.74 109.477C423.251 109.068 423.638 108.514 423.899 107.815C424.166 107.116 424.3 106.33 424.3 105.455C424.3 104.591 424.169 103.815 423.908 103.128C423.652 102.44 423.266 101.898 422.749 101.5C422.237 101.102 421.598 100.903 420.831 100.903C420.092 100.903 419.467 101.094 418.956 101.474C418.45 101.855 418.067 102.386 417.805 103.068C417.544 103.75 417.413 104.545 417.413 105.455ZM432.338 112.29C431.509 112.29 430.759 112.136 430.088 111.83C429.418 111.517 428.887 111.065 428.495 110.474C428.108 109.884 427.915 109.159 427.915 108.301C427.915 107.562 428.057 106.955 428.341 106.477C428.625 106 429.009 105.622 429.492 105.344C429.975 105.065 430.514 104.855 431.111 104.713C431.708 104.571 432.316 104.463 432.935 104.389C433.719 104.298 434.355 104.224 434.844 104.168C435.333 104.105 435.688 104.006 435.909 103.869C436.131 103.733 436.242 103.511 436.242 103.205V103.145C436.242 102.401 436.032 101.824 435.611 101.415C435.196 101.006 434.577 100.801 433.753 100.801C432.895 100.801 432.219 100.991 431.725 101.372C431.236 101.747 430.898 102.165 430.71 102.625L428.316 102.08C428.6 101.284 429.014 100.642 429.56 100.153C430.111 99.6591 430.745 99.3011 431.46 99.0795C432.176 98.8523 432.929 98.7386 433.719 98.7386C434.242 98.7386 434.796 98.8011 435.381 98.9261C435.972 99.0455 436.523 99.267 437.034 99.5909C437.551 99.9148 437.975 100.378 438.304 100.98C438.634 101.577 438.799 102.352 438.799 103.307V112H436.31V110.21H436.208C436.043 110.54 435.796 110.864 435.466 111.182C435.137 111.5 434.713 111.764 434.196 111.974C433.679 112.185 433.06 112.29 432.338 112.29ZM432.892 110.244C433.597 110.244 434.199 110.105 434.699 109.827C435.205 109.548 435.588 109.185 435.85 108.736C436.117 108.281 436.25 107.795 436.25 107.278V105.591C436.159 105.682 435.983 105.767 435.722 105.847C435.466 105.92 435.174 105.986 434.844 106.043C434.514 106.094 434.193 106.142 433.881 106.188C433.568 106.227 433.307 106.261 433.097 106.29C432.603 106.352 432.151 106.457 431.742 106.605C431.338 106.753 431.014 106.966 430.77 107.244C430.532 107.517 430.412 107.881 430.412 108.335C430.412 108.966 430.645 109.443 431.111 109.767C431.577 110.085 432.171 110.244 432.892 110.244ZM443.541 104.227V112H440.993V98.9091H443.439V101.04H443.601C443.902 100.347 444.373 99.7898 445.015 99.3693C445.663 98.9489 446.479 98.7386 447.462 98.7386C448.354 98.7386 449.135 98.9261 449.805 99.3011C450.476 99.6705 450.996 100.222 451.365 100.955C451.734 101.687 451.919 102.594 451.919 103.673V112H449.371V103.98C449.371 103.031 449.123 102.29 448.629 101.756C448.135 101.216 447.456 100.946 446.592 100.946C446.001 100.946 445.476 101.074 445.015 101.33C444.561 101.585 444.2 101.96 443.933 102.455C443.672 102.943 443.541 103.534 443.541 104.227ZM460.247 98.9091V100.955H453.097V98.9091H460.247ZM455.014 95.7727H457.563V108.156C457.563 108.651 457.636 109.023 457.784 109.273C457.932 109.517 458.122 109.685 458.355 109.776C458.594 109.861 458.852 109.903 459.131 109.903C459.335 109.903 459.514 109.889 459.668 109.861C459.821 109.832 459.94 109.81 460.026 109.793L460.486 111.898C460.338 111.955 460.128 112.011 459.855 112.068C459.583 112.131 459.242 112.165 458.833 112.17C458.162 112.182 457.537 112.062 456.958 111.812C456.378 111.562 455.909 111.176 455.551 110.653C455.193 110.131 455.014 109.474 455.014 108.685V95.7727ZM471.465 102.105L469.155 102.514C469.059 102.219 468.905 101.937 468.695 101.67C468.49 101.403 468.212 101.185 467.86 101.014C467.508 100.844 467.067 100.759 466.539 100.759C465.817 100.759 465.215 100.92 464.732 101.244C464.249 101.562 464.008 101.974 464.008 102.48C464.008 102.918 464.169 103.27 464.493 103.537C464.817 103.804 465.34 104.023 466.062 104.193L468.141 104.67C469.346 104.949 470.243 105.378 470.834 105.957C471.425 106.537 471.721 107.29 471.721 108.216C471.721 109 471.493 109.699 471.039 110.312C470.59 110.92 469.962 111.398 469.155 111.744C468.354 112.091 467.425 112.264 466.368 112.264C464.902 112.264 463.706 111.952 462.78 111.327C461.854 110.696 461.286 109.801 461.076 108.642L463.539 108.267C463.692 108.909 464.008 109.395 464.485 109.724C464.962 110.048 465.584 110.21 466.351 110.21C467.187 110.21 467.854 110.037 468.354 109.69C468.854 109.338 469.104 108.909 469.104 108.403C469.104 107.994 468.951 107.651 468.644 107.372C468.343 107.094 467.88 106.884 467.255 106.741L465.039 106.256C463.817 105.977 462.914 105.534 462.329 104.926C461.749 104.318 461.459 103.548 461.459 102.616C461.459 101.844 461.675 101.168 462.107 100.588C462.539 100.009 463.135 99.5568 463.897 99.233C464.658 98.9034 465.53 98.7386 466.513 98.7386C467.928 98.7386 469.042 99.0455 469.854 99.6591C470.667 100.267 471.204 101.082 471.465 102.105Z" fill="black" fill-opacity="0.5"/>
<line x1="53.5" y1="195" x2="53.5" y2="976" stroke="black"/>
<line x1="53" y1="975.5" x2="1392" y2="975.5" stroke="black"/>
<path d="M135.981 376.199C135.333 376.189 134.693 376.071 134.064 375.844C133.439 375.616 132.87 375.238 132.359 374.707C131.848 374.177 131.438 373.464 131.13 372.57C130.827 371.675 130.676 370.557 130.676 369.217C130.676 367.948 130.801 366.821 131.052 365.837C131.308 364.852 131.675 364.021 132.153 363.344C132.631 362.662 133.209 362.143 133.886 361.788C134.563 361.433 135.323 361.256 136.166 361.256C137.032 361.256 137.802 361.426 138.474 361.767C139.146 362.108 139.691 362.579 140.108 363.18C140.529 363.782 140.797 364.466 140.91 365.233H138.744C138.597 364.627 138.306 364.132 137.87 363.749C137.435 363.365 136.867 363.173 136.166 363.173C135.1 363.173 134.27 363.637 133.673 364.565C133.081 365.493 132.783 366.784 132.778 368.436H132.885C133.136 368.024 133.443 367.674 133.808 367.385C134.177 367.091 134.589 366.866 135.044 366.71C135.503 366.549 135.986 366.469 136.493 366.469C137.335 366.469 138.098 366.675 138.779 367.087C139.466 367.494 140.013 368.057 140.42 368.777C140.827 369.497 141.031 370.321 141.031 371.249C141.031 372.177 140.82 373.017 140.399 373.77C139.982 374.523 139.395 375.119 138.637 375.56C137.88 375.995 136.994 376.208 135.981 376.199ZM135.974 374.352C136.533 374.352 137.032 374.215 137.473 373.94C137.913 373.666 138.261 373.296 138.517 372.832C138.772 372.368 138.9 371.85 138.9 371.277C138.9 370.718 138.775 370.209 138.524 369.75C138.278 369.291 137.937 368.926 137.501 368.656C137.07 368.386 136.578 368.251 136.024 368.251C135.602 368.251 135.212 368.332 134.852 368.493C134.497 368.654 134.184 368.876 133.914 369.161C133.645 369.445 133.431 369.771 133.275 370.141C133.124 370.505 133.048 370.891 133.048 371.298C133.048 371.843 133.173 372.347 133.424 372.811C133.68 373.275 134.028 373.649 134.468 373.933C134.913 374.213 135.415 374.352 135.974 374.352ZM147.455 361.256C148.103 361.26 148.742 361.379 149.372 361.611C150.002 361.843 150.57 362.222 151.077 362.747C151.588 363.273 151.995 363.983 152.298 364.878C152.606 365.768 152.762 366.876 152.767 368.202C152.767 369.475 152.639 370.609 152.384 371.604C152.128 372.593 151.761 373.429 151.283 374.111C150.809 374.793 150.234 375.311 149.557 375.666C148.88 376.021 148.117 376.199 147.27 376.199C146.403 376.199 145.634 376.028 144.962 375.688C144.289 375.347 143.742 374.875 143.321 374.274C142.9 373.668 142.637 372.972 142.533 372.186H144.699C144.841 372.811 145.13 373.318 145.565 373.706C146.006 374.089 146.574 374.281 147.27 374.281C148.335 374.281 149.166 373.817 149.763 372.889C150.359 371.956 150.66 370.654 150.665 368.983H150.551C150.305 369.39 149.997 369.741 149.628 370.034C149.263 370.328 148.854 370.555 148.399 370.716C147.945 370.877 147.459 370.957 146.943 370.957C146.105 370.957 145.343 370.751 144.656 370.339C143.97 369.928 143.423 369.362 143.016 368.642C142.608 367.922 142.405 367.101 142.405 366.178C142.405 365.259 142.613 364.426 143.03 363.678C143.451 362.929 144.038 362.338 144.791 361.902C145.549 361.462 146.437 361.246 147.455 361.256ZM147.462 363.102C146.908 363.102 146.408 363.24 145.963 363.514C145.523 363.784 145.175 364.151 144.919 364.615C144.663 365.074 144.536 365.586 144.536 366.149C144.536 366.713 144.659 367.224 144.905 367.683C145.156 368.138 145.497 368.5 145.928 368.77C146.363 369.035 146.86 369.168 147.419 369.168C147.836 369.168 148.224 369.087 148.584 368.926C148.944 368.765 149.259 368.543 149.528 368.259C149.798 367.97 150.009 367.643 150.161 367.278C150.312 366.914 150.388 366.53 150.388 366.128C150.388 365.593 150.26 365.096 150.004 364.636C149.753 364.177 149.408 363.808 148.967 363.528C148.527 363.244 148.025 363.102 147.462 363.102ZM161.925 373.273V372.506C161.925 371.956 162.039 371.455 162.266 371C162.498 370.541 162.834 370.174 163.275 369.899C163.72 369.62 164.257 369.48 164.887 369.48C165.531 369.48 166.07 369.617 166.506 369.892C166.942 370.167 167.271 370.534 167.493 370.993C167.721 371.452 167.834 371.956 167.834 372.506V373.273C167.834 373.822 167.721 374.326 167.493 374.786C167.266 375.24 166.932 375.607 166.492 375.886C166.056 376.161 165.521 376.298 164.887 376.298C164.248 376.298 163.708 376.161 163.267 375.886C162.827 375.607 162.493 375.24 162.266 374.786C162.039 374.326 161.925 373.822 161.925 373.273ZM163.58 372.506V373.273C163.58 373.68 163.677 374.049 163.871 374.381C164.065 374.712 164.404 374.878 164.887 374.878C165.365 374.878 165.699 374.712 165.888 374.381C166.078 374.049 166.172 373.68 166.172 373.273V372.506C166.172 372.098 166.08 371.729 165.895 371.398C165.715 371.066 165.379 370.901 164.887 370.901C164.413 370.901 164.077 371.066 163.878 371.398C163.679 371.729 163.58 372.098 163.58 372.506ZM154.61 364.949V364.182C154.61 363.633 154.723 363.128 154.951 362.669C155.183 362.21 155.519 361.843 155.959 361.568C156.404 361.294 156.942 361.156 157.571 361.156C158.215 361.156 158.755 361.294 159.191 361.568C159.626 361.843 159.955 362.21 160.178 362.669C160.4 363.128 160.512 363.633 160.512 364.182V364.949C160.512 365.498 160.398 366.002 160.171 366.462C159.948 366.916 159.617 367.283 159.176 367.562C158.741 367.837 158.206 367.974 157.571 367.974C156.927 367.974 156.385 367.837 155.945 367.562C155.509 367.283 155.178 366.916 154.951 366.462C154.723 366.002 154.61 365.498 154.61 364.949ZM156.272 364.182V364.949C156.272 365.356 156.366 365.725 156.556 366.057C156.75 366.388 157.088 366.554 157.571 366.554C158.045 366.554 158.376 366.388 158.566 366.057C158.76 365.725 158.857 365.356 158.857 364.949V364.182C158.857 363.775 158.765 363.405 158.58 363.074C158.395 362.742 158.059 362.577 157.571 362.577C157.098 362.577 156.762 362.742 156.563 363.074C156.369 363.405 156.272 363.775 156.272 364.182ZM155.284 376L165.284 361.455H166.982L156.982 376H155.284Z" fill="black"/>
<path d="M149.774 396.364V408H148.16L142.245 399.466H142.137V408H140.382V396.364H142.007L147.927 404.909H148.035V396.364H149.774ZM155.074 408.176C154.256 408.176 153.542 407.989 152.932 407.614C152.323 407.239 151.849 406.714 151.512 406.04C151.175 405.366 151.006 404.578 151.006 403.676C151.006 402.771 151.175 401.979 151.512 401.301C151.849 400.623 152.323 400.097 152.932 399.722C153.542 399.347 154.256 399.159 155.074 399.159C155.893 399.159 156.607 399.347 157.216 399.722C157.826 400.097 158.3 400.623 158.637 401.301C158.974 401.979 159.143 402.771 159.143 403.676C159.143 404.578 158.974 405.366 158.637 406.04C158.3 406.714 157.826 407.239 157.216 407.614C156.607 407.989 155.893 408.176 155.074 408.176ZM155.08 406.75C155.61 406.75 156.05 406.61 156.398 406.33C156.747 406.049 157.004 405.676 157.171 405.21C157.341 404.744 157.427 404.231 157.427 403.67C157.427 403.114 157.341 402.602 157.171 402.136C157.004 401.667 156.747 401.29 156.398 401.006C156.05 400.722 155.61 400.58 155.08 400.58C154.546 400.58 154.103 400.722 153.751 401.006C153.402 401.29 153.143 401.667 152.972 402.136C152.805 402.602 152.722 403.114 152.722 403.67C152.722 404.231 152.805 404.744 152.972 405.21C153.143 405.676 153.402 406.049 153.751 406.33C154.103 406.61 154.546 406.75 155.08 406.75Z" fill="black" fill-opacity="0.5"/>
<mask id="path-7-inside-1_1629_12977" fill="white">
<path d="M82 448C82 441.373 87.3726 436 94 436H205C211.627 436 217 441.373 217 448V976H82V448Z"/>
</mask>
<path d="M82 448C82 441.373 87.3726 436 94 436H205C211.627 436 217 441.373 217 448V976H82V448Z" fill="#B91515"/>
<path d="M82 436H217H82ZM217 977H82V975H217V977ZM82 976V436V976ZM217 436V976V436Z" fill="black" mask="url(#path-7-inside-1_1629_12977)"/>
<path d="M305.51 627.199C304.535 627.199 303.663 627.031 302.896 626.695C302.134 626.358 301.53 625.892 301.085 625.295C300.645 624.694 300.408 623.998 300.375 623.207H302.605C302.634 623.638 302.778 624.012 303.038 624.33C303.304 624.642 303.649 624.884 304.075 625.054C304.501 625.224 304.975 625.31 305.496 625.31C306.069 625.31 306.575 625.21 307.016 625.011C307.461 624.812 307.809 624.536 308.06 624.18C308.311 623.821 308.436 623.406 308.436 622.938C308.436 622.45 308.311 622.021 308.06 621.652C307.813 621.278 307.451 620.984 306.973 620.771C306.5 620.558 305.927 620.452 305.254 620.452H304.026V618.662H305.254C305.794 618.662 306.268 618.565 306.675 618.371C307.087 618.177 307.409 617.907 307.641 617.561C307.873 617.211 307.989 616.801 307.989 616.332C307.989 615.883 307.887 615.492 307.683 615.161C307.484 614.824 307.2 614.562 306.831 614.372C306.466 614.183 306.036 614.088 305.538 614.088C305.065 614.088 304.622 614.176 304.21 614.351C303.803 614.521 303.472 614.768 303.216 615.089C302.96 615.407 302.823 615.788 302.804 616.233H300.68C300.704 615.447 300.936 614.756 301.376 614.159C301.821 613.562 302.409 613.096 303.138 612.76C303.867 612.424 304.677 612.256 305.567 612.256C306.5 612.256 307.304 612.438 307.982 612.803C308.663 613.162 309.189 613.643 309.558 614.244C309.932 614.846 310.117 615.504 310.112 616.219C310.117 617.033 309.89 617.724 309.43 618.293C308.976 618.861 308.37 619.242 307.612 619.436V619.55C308.578 619.696 309.326 620.08 309.857 620.7C310.392 621.321 310.657 622.09 310.652 623.009C310.657 623.809 310.434 624.526 309.984 625.161C309.539 625.795 308.931 626.295 308.159 626.659C307.387 627.019 306.504 627.199 305.51 627.199ZM317.855 612.455V627H315.653V614.656H315.568L312.088 616.929V614.827L315.717 612.455H317.855ZM328.382 624.273V623.506C328.382 622.956 328.496 622.455 328.723 622C328.955 621.541 329.291 621.174 329.732 620.899C330.177 620.62 330.714 620.48 331.344 620.48C331.988 620.48 332.527 620.617 332.963 620.892C333.399 621.167 333.728 621.534 333.95 621.993C334.178 622.452 334.291 622.956 334.291 623.506V624.273C334.291 624.822 334.178 625.326 333.95 625.786C333.723 626.24 333.389 626.607 332.949 626.886C332.513 627.161 331.978 627.298 331.344 627.298C330.705 627.298 330.165 627.161 329.724 626.886C329.284 626.607 328.95 626.24 328.723 625.786C328.496 625.326 328.382 624.822 328.382 624.273ZM330.037 623.506V624.273C330.037 624.68 330.134 625.049 330.328 625.381C330.522 625.712 330.861 625.878 331.344 625.878C331.822 625.878 332.156 625.712 332.345 625.381C332.535 625.049 332.629 624.68 332.629 624.273V623.506C332.629 623.098 332.537 622.729 332.352 622.398C332.172 622.066 331.836 621.901 331.344 621.901C330.87 621.901 330.534 622.066 330.335 622.398C330.136 622.729 330.037 623.098 330.037 623.506ZM321.067 615.949V615.182C321.067 614.633 321.18 614.128 321.408 613.669C321.64 613.21 321.976 612.843 322.416 612.568C322.861 612.294 323.399 612.156 324.028 612.156C324.672 612.156 325.212 612.294 325.648 612.568C326.083 612.843 326.412 613.21 326.635 613.669C326.857 614.128 326.969 614.633 326.969 615.182V615.949C326.969 616.498 326.855 617.002 326.628 617.462C326.405 617.916 326.074 618.283 325.634 618.562C325.198 618.837 324.663 618.974 324.028 618.974C323.384 618.974 322.842 618.837 322.402 618.562C321.966 618.283 321.635 617.916 321.408 617.462C321.18 617.002 321.067 616.498 321.067 615.949ZM322.729 615.182V615.949C322.729 616.356 322.823 616.725 323.013 617.057C323.207 617.388 323.545 617.554 324.028 617.554C324.502 617.554 324.833 617.388 325.023 617.057C325.217 616.725 325.314 616.356 325.314 615.949V615.182C325.314 614.775 325.222 614.405 325.037 614.074C324.852 613.742 324.516 613.577 324.028 613.577C323.555 613.577 323.219 613.742 323.02 614.074C322.826 614.405 322.729 614.775 322.729 615.182ZM321.741 627L331.741 612.455H333.439L323.439 627H321.741Z" fill="black"/>
<path d="M304.881 647.364H306.875L309.915 652.653H310.04L313.08 647.364H315.074L310.852 654.432V659H309.102V654.432L304.881 647.364ZM318.119 659.176C317.259 659.176 316.519 658.992 315.897 658.625C315.28 658.254 314.803 657.733 314.466 657.062C314.132 656.388 313.966 655.598 313.966 654.693C313.966 653.799 314.132 653.011 314.466 652.33C314.803 651.648 315.272 651.116 315.875 650.733C316.481 650.35 317.189 650.159 318 650.159C318.492 650.159 318.969 650.241 319.432 650.403C319.894 650.566 320.308 650.822 320.676 651.17C321.043 651.519 321.333 651.972 321.545 652.528C321.757 653.081 321.863 653.754 321.863 654.545V655.148H314.926V653.875H320.199C320.199 653.428 320.108 653.032 319.926 652.688C319.744 652.339 319.488 652.064 319.159 651.864C318.833 651.663 318.45 651.562 318.011 651.562C317.534 651.562 317.117 651.68 316.761 651.915C316.409 652.146 316.136 652.449 315.943 652.824C315.754 653.195 315.659 653.598 315.659 654.034V655.028C315.659 655.612 315.761 656.108 315.966 656.517C316.174 656.926 316.464 657.239 316.835 657.455C317.206 657.667 317.64 657.773 318.136 657.773C318.458 657.773 318.752 657.727 319.017 657.636C319.282 657.542 319.511 657.402 319.704 657.216C319.897 657.03 320.045 656.801 320.147 656.528L321.755 656.818C321.627 657.292 321.396 657.706 321.062 658.062C320.733 658.415 320.318 658.689 319.818 658.886C319.322 659.08 318.755 659.176 318.119 659.176ZM329.488 652.403L327.948 652.676C327.884 652.479 327.782 652.292 327.641 652.114C327.505 651.936 327.32 651.79 327.085 651.676C326.85 651.562 326.556 651.506 326.204 651.506C325.723 651.506 325.321 651.614 324.999 651.83C324.677 652.042 324.516 652.316 324.516 652.653C324.516 652.945 324.624 653.18 324.84 653.358C325.056 653.536 325.405 653.682 325.886 653.795L327.272 654.114C328.075 654.299 328.674 654.585 329.068 654.972C329.462 655.358 329.659 655.86 329.659 656.477C329.659 657 329.507 657.466 329.204 657.875C328.905 658.28 328.486 658.598 327.948 658.83C327.414 659.061 326.795 659.176 326.09 659.176C325.113 659.176 324.316 658.968 323.698 658.551C323.081 658.131 322.702 657.534 322.562 656.761L324.204 656.511C324.306 656.939 324.516 657.263 324.835 657.483C325.153 657.699 325.568 657.807 326.079 657.807C326.636 657.807 327.081 657.691 327.414 657.46C327.748 657.225 327.914 656.939 327.914 656.602C327.914 656.33 327.812 656.1 327.607 655.915C327.407 655.729 327.098 655.589 326.681 655.494L325.204 655.17C324.39 654.985 323.787 654.689 323.397 654.284C323.011 653.879 322.818 653.366 322.818 652.744C322.818 652.229 322.962 651.778 323.249 651.392C323.537 651.006 323.935 650.705 324.443 650.489C324.95 650.269 325.532 650.159 326.187 650.159C327.13 650.159 327.873 650.364 328.414 650.773C328.956 651.178 329.314 651.722 329.488 652.403Z" fill="black" fill-opacity="0.5"/>
<mask id="path-11-inside-2_1629_12977" fill="white">
<path d="M250 699C250 692.373 255.373 687 262 687H373C379.627 687 385 692.373 385 699V976H250V699Z"/>
</mask>
<path d="M250 699C250 692.373 255.373 687 262 687H373C379.627 687 385 692.373 385 699V976H250V699Z" fill="#0BB44E"/>
<path d="M250 687H385H250ZM385 977H250V975H385V977ZM250 976V687V976ZM385 687V976V687Z" fill="black" mask="url(#path-11-inside-2_1629_12977)"/>
<path d="M1305.92 71V53.5455H1312.14C1313.49 53.5455 1314.61 53.7784 1315.51 54.2443C1316.4 54.7102 1317.07 55.3551 1317.52 56.179C1317.96 56.9972 1318.18 57.9432 1318.18 59.017C1318.18 60.0852 1317.96 61.0256 1317.51 61.8381C1317.07 62.6449 1316.39 63.2727 1315.5 63.7216C1314.61 64.1705 1313.48 64.3949 1312.13 64.3949H1307.42V62.1278H1311.89C1312.74 62.1278 1313.44 62.0057 1313.97 61.7614C1314.51 61.517 1314.91 61.1619 1315.16 60.696C1315.41 60.2301 1315.53 59.6705 1315.53 59.017C1315.53 58.358 1315.4 57.7869 1315.15 57.304C1314.9 56.821 1314.5 56.4517 1313.96 56.196C1313.43 55.9347 1312.73 55.804 1311.86 55.804H1308.55V71H1305.92ZM1314.53 63.125L1318.85 71H1315.85L1311.62 63.125H1314.53ZM1325.33 71.2642C1324.1 71.2642 1323.03 70.983 1322.12 70.4205C1321.2 69.858 1320.49 69.071 1319.99 68.0597C1319.48 67.0483 1319.23 65.8665 1319.23 64.5142C1319.23 63.1562 1319.48 61.9687 1319.99 60.9517C1320.49 59.9347 1321.2 59.1449 1322.12 58.5824C1323.03 58.0199 1324.1 57.7386 1325.33 57.7386C1326.56 57.7386 1327.63 58.0199 1328.55 58.5824C1329.46 59.1449 1330.17 59.9347 1330.68 60.9517C1331.18 61.9687 1331.43 63.1562 1331.43 64.5142C1331.43 65.8665 1331.18 67.0483 1330.68 68.0597C1330.17 69.071 1329.46 69.858 1328.55 70.4205C1327.63 70.983 1326.56 71.2642 1325.33 71.2642ZM1325.34 69.125C1326.14 69.125 1326.8 68.9148 1327.32 68.4943C1327.84 68.0739 1328.23 67.5142 1328.48 66.8153C1328.73 66.1165 1328.86 65.3466 1328.86 64.5057C1328.86 63.6705 1328.73 62.9034 1328.48 62.2045C1328.23 61.5 1327.84 60.9347 1327.32 60.5085C1326.8 60.0824 1326.14 59.8693 1325.34 59.8693C1324.54 59.8693 1323.87 60.0824 1323.35 60.5085C1322.82 60.9347 1322.43 61.5 1322.18 62.2045C1321.93 62.9034 1321.8 63.6705 1321.8 64.5057C1321.8 65.3466 1321.93 66.1165 1322.18 66.8153C1322.43 67.5142 1322.82 68.0739 1323.35 68.4943C1323.87 68.9148 1324.54 69.125 1325.34 69.125ZM1341.37 65.571V57.9091H1343.93V71H1341.42V68.733H1341.29C1340.98 69.4318 1340.5 70.0142 1339.84 70.4801C1339.18 70.9403 1338.36 71.1705 1337.37 71.1705C1336.53 71.1705 1335.79 70.9858 1335.14 70.6165C1334.5 70.2415 1333.99 69.6875 1333.62 68.9545C1333.26 68.2216 1333.08 67.3153 1333.08 66.2358V57.9091H1335.63V65.929C1335.63 66.821 1335.87 67.5312 1336.37 68.0597C1336.86 68.5881 1337.5 68.8523 1338.29 68.8523C1338.77 68.8523 1339.25 68.733 1339.72 68.4943C1340.2 68.2557 1340.59 67.8949 1340.9 67.4119C1341.22 66.929 1341.38 66.3153 1341.37 65.571ZM1348.7 63.2273V71H1346.15V57.9091H1348.6V60.0398H1348.76C1349.06 59.3466 1349.53 58.7898 1350.17 58.3693C1350.82 57.9489 1351.64 57.7386 1352.62 57.7386C1353.51 57.7386 1354.29 57.9261 1354.96 58.3011C1355.64 58.6705 1356.15 59.2216 1356.52 59.9545C1356.89 60.6875 1357.08 61.5937 1357.08 62.6733V71H1354.53V62.9801C1354.53 62.0312 1354.28 61.2898 1353.79 60.7557C1353.29 60.2159 1352.62 59.946 1351.75 59.946C1351.16 59.946 1350.64 60.0739 1350.17 60.3295C1349.72 60.5852 1349.36 60.9602 1349.09 61.4545C1348.83 61.9432 1348.7 62.5341 1348.7 63.2273ZM1364.2 71.2557C1363.14 71.2557 1362.2 70.9858 1361.37 70.446C1360.54 69.9006 1359.9 69.125 1359.42 68.1193C1358.96 67.108 1358.72 65.8949 1358.72 64.4801C1358.72 63.0653 1358.96 61.8551 1359.43 60.8494C1359.91 59.8437 1360.56 59.0739 1361.39 58.5398C1362.22 58.0057 1363.16 57.7386 1364.21 57.7386C1365.03 57.7386 1365.68 57.875 1366.17 58.1477C1366.67 58.4148 1367.06 58.7273 1367.33 59.0852C1367.61 59.4432 1367.83 59.7585 1367.98 60.0312H1368.13V53.5455H1370.68V71H1368.19V68.9631H1367.98C1367.83 69.2415 1367.61 69.5597 1367.32 69.9176C1367.03 70.2756 1366.64 70.5881 1366.14 70.8551C1365.64 71.1222 1364.99 71.2557 1364.2 71.2557ZM1364.76 69.0824C1365.49 69.0824 1366.11 68.8892 1366.62 68.5028C1367.13 68.1108 1367.51 67.5682 1367.78 66.875C1368.04 66.1818 1368.18 65.375 1368.18 64.4545C1368.18 63.5455 1368.05 62.75 1367.78 62.0682C1367.52 61.3864 1367.14 60.8551 1366.63 60.4744C1366.13 60.0937 1365.5 59.9034 1364.76 59.9034C1363.99 59.9034 1363.35 60.1023 1362.84 60.5C1362.33 60.8977 1361.94 61.4403 1361.68 62.1278C1361.43 62.8153 1361.3 63.5909 1361.3 64.4545C1361.3 65.3295 1361.43 66.1165 1361.69 66.8153C1361.95 67.5142 1362.34 68.0682 1362.85 68.4773C1363.37 68.8807 1364 69.0824 1364.76 69.0824ZM1378.24 71V69.0909L1384.14 62.9716C1384.77 62.3068 1385.29 61.7244 1385.7 61.2244C1386.12 60.7187 1386.43 60.2386 1386.63 59.7841C1386.84 59.3295 1386.94 58.8466 1386.94 58.3352C1386.94 57.7557 1386.8 57.2557 1386.53 56.8352C1386.26 56.4091 1385.88 56.0824 1385.41 55.8551C1384.94 55.6222 1384.41 55.5057 1383.82 55.5057C1383.19 55.5057 1382.65 55.6335 1382.18 55.8892C1381.72 56.1449 1381.36 56.5057 1381.11 56.9716C1380.86 57.4375 1380.73 57.983 1380.73 58.608H1378.22C1378.22 57.5455 1378.46 56.6165 1378.95 55.821C1379.44 55.0256 1380.11 54.4091 1380.96 53.9716C1381.82 53.5284 1382.79 53.3068 1383.87 53.3068C1384.97 53.3068 1385.93 53.5256 1386.77 53.9631C1387.61 54.3949 1388.27 54.9858 1388.74 55.7358C1389.21 56.4801 1389.44 57.321 1389.44 58.2585C1389.44 58.9062 1389.32 59.5398 1389.08 60.1591C1388.84 60.7784 1388.42 61.4687 1387.82 62.2301C1387.23 62.9858 1386.4 63.9034 1385.34 64.983L1381.87 68.6136V68.7415H1389.73V71H1378.24Z" fill="black" fill-opacity="0.5"/>
</svg>
