<svg width="1440" height="1024" viewBox="0 0 1440 1024" fill="none" xmlns="http://www.w3.org/2000/svg">
<rect width="1440" height="1024" fill="#F1F1F1"/>
<rect x="702" y="24" width="36" height="36" rx="18" fill="#CFCFCF"/>
<rect x="337" y="301" width="766" height="422" rx="24" fill="#D9D9D9"/>
<rect x="1310" y="24" width="106" height="36" rx="18" fill="#CFCFCF"/>
<rect x="24" y="24" width="36" height="36" rx="12" fill="#CFCFCF"/>
<rect x="828" y="561" width="227" height="24" fill="#C5C5C5"/>
<rect x="894" y="597" width="161" height="24" fill="#C5C5C5"/>
<rect x="893" y="645" width="120" height="30" rx="6" fill="#EB2413"/>
<path d="M935.959 665V656.273H939.155C939.774 656.273 940.287 656.375 940.693 656.58C941.099 656.781 941.403 657.055 941.605 657.402C941.807 657.746 941.908 658.134 941.908 658.565C941.908 658.929 941.841 659.236 941.707 659.486C941.574 659.733 941.395 659.932 941.17 660.082C940.949 660.23 940.705 660.338 940.438 660.406V660.491C940.727 660.506 941.01 660.599 941.286 660.773C941.564 660.943 941.794 661.186 941.976 661.501C942.158 661.817 942.249 662.2 942.249 662.652C942.249 663.098 942.143 663.499 941.933 663.854C941.726 664.206 941.405 664.486 940.97 664.693C940.536 664.898 939.98 665 939.304 665H935.959ZM937.276 663.871H939.176C939.807 663.871 940.259 663.749 940.531 663.504C940.804 663.26 940.94 662.955 940.94 662.588C940.94 662.312 940.871 662.06 940.732 661.83C940.592 661.599 940.393 661.416 940.135 661.28C939.879 661.143 939.575 661.075 939.223 661.075H937.276V663.871ZM937.276 660.048H939.04C939.335 660.048 939.601 659.991 939.837 659.878C940.075 659.764 940.264 659.605 940.403 659.401C940.545 659.193 940.616 658.949 940.616 658.668C940.616 658.307 940.49 658.004 940.237 657.76C939.984 657.516 939.597 657.393 939.074 657.393H937.276V660.048ZM947.254 662.286V658.455H948.533V665H947.28V663.866H947.212C947.061 664.216 946.82 664.507 946.487 664.74C946.158 664.97 945.747 665.085 945.256 665.085C944.835 665.085 944.463 664.993 944.139 664.808C943.818 664.621 943.565 664.344 943.381 663.977C943.199 663.611 943.108 663.158 943.108 662.618V658.455H944.382V662.464C944.382 662.911 944.506 663.266 944.753 663.53C945 663.794 945.321 663.926 945.716 663.926C945.955 663.926 946.192 663.866 946.428 663.747C946.666 663.628 946.864 663.447 947.02 663.206C947.179 662.964 947.257 662.658 947.254 662.286ZM952.7 658.455V659.477H949.125V658.455H952.7ZM950.084 656.886H951.358V663.078C951.358 663.325 951.395 663.511 951.469 663.636C951.543 663.759 951.638 663.842 951.754 663.888C951.874 663.93 952.003 663.952 952.142 663.952C952.244 663.952 952.334 663.945 952.41 663.93C952.487 663.916 952.547 663.905 952.589 663.896L952.82 664.949C952.746 664.977 952.641 665.006 952.504 665.034C952.368 665.065 952.197 665.082 951.993 665.085C951.658 665.091 951.345 665.031 951.055 664.906C950.766 664.781 950.531 664.588 950.352 664.327C950.173 664.065 950.084 663.737 950.084 663.342V656.886ZM956.565 658.455V659.477H952.99V658.455H956.565ZM953.949 656.886H955.223V663.078C955.223 663.325 955.26 663.511 955.334 663.636C955.407 663.759 955.503 663.842 955.619 663.888C955.738 663.93 955.868 663.952 956.007 663.952C956.109 663.952 956.199 663.945 956.275 663.93C956.352 663.916 956.412 663.905 956.454 663.896L956.684 664.949C956.611 664.977 956.505 665.006 956.369 665.034C956.233 665.065 956.062 665.082 955.858 665.085C955.522 665.091 955.21 665.031 954.92 664.906C954.63 664.781 954.396 664.588 954.217 664.327C954.038 664.065 953.949 663.737 953.949 663.342V656.886ZM960.061 665.132C959.448 665.132 958.912 664.991 958.455 664.71C957.997 664.429 957.642 664.036 957.389 663.53C957.137 663.024 957.01 662.433 957.01 661.757C957.01 661.078 957.137 660.484 957.389 659.976C957.642 659.467 957.997 659.072 958.455 658.791C958.912 658.51 959.448 658.369 960.061 658.369C960.675 658.369 961.21 658.51 961.668 658.791C962.125 659.072 962.48 659.467 962.733 659.976C962.986 660.484 963.112 661.078 963.112 661.757C963.112 662.433 962.986 663.024 962.733 663.53C962.48 664.036 962.125 664.429 961.668 664.71C961.21 664.991 960.675 665.132 960.061 665.132ZM960.066 664.062C960.463 664.062 960.793 663.957 961.054 663.747C961.316 663.537 961.509 663.257 961.634 662.908C961.762 662.558 961.825 662.173 961.825 661.753C961.825 661.335 961.762 660.952 961.634 660.602C961.509 660.25 961.316 659.967 961.054 659.754C960.793 659.541 960.463 659.435 960.066 659.435C959.665 659.435 959.333 659.541 959.068 659.754C958.807 659.967 958.612 660.25 958.485 660.602C958.36 660.952 958.297 661.335 958.297 661.753C958.297 662.173 958.36 662.558 958.485 662.908C958.612 663.257 958.807 663.537 959.068 663.747C959.333 663.957 959.665 664.062 960.066 664.062ZM965.209 661.114V665H963.935V658.455H965.158V659.52H965.239C965.389 659.173 965.625 658.895 965.946 658.685C966.27 658.474 966.678 658.369 967.169 658.369C967.615 658.369 968.006 658.463 968.341 658.651C968.676 658.835 968.936 659.111 969.121 659.477C969.305 659.844 969.398 660.297 969.398 660.837V665H968.124V660.99C968.124 660.516 968 660.145 967.753 659.878C967.506 659.608 967.166 659.473 966.734 659.473C966.439 659.473 966.176 659.537 965.946 659.665C965.719 659.793 965.538 659.98 965.405 660.227C965.274 660.472 965.209 660.767 965.209 661.114Z" fill="white"/>
<path d="M1346.96 47V38.2727H1348.28V45.8665H1352.23V47H1346.96ZM1355.85 47.1321C1355.21 47.1321 1354.65 46.9943 1354.18 46.7188C1353.72 46.4403 1353.36 46.0497 1353.11 45.5469C1352.86 45.0412 1352.74 44.4489 1352.74 43.7699C1352.74 43.0994 1352.86 42.5085 1353.11 41.9972C1353.36 41.4858 1353.72 41.0866 1354.17 40.7997C1354.62 40.5128 1355.15 40.3693 1355.76 40.3693C1356.13 40.3693 1356.49 40.4304 1356.84 40.5526C1357.18 40.6747 1357.49 40.8665 1357.77 41.1278C1358.04 41.3892 1358.26 41.7287 1358.42 42.1463C1358.58 42.5611 1358.66 43.0653 1358.66 43.6591V44.1108H1353.46V43.1562H1357.41C1357.41 42.821 1357.34 42.5241 1357.21 42.2656C1357.07 42.0043 1356.88 41.7983 1356.63 41.6477C1356.39 41.4972 1356.1 41.4219 1355.77 41.4219C1355.41 41.4219 1355.1 41.5099 1354.83 41.6861C1354.57 41.8594 1354.36 42.0866 1354.22 42.3679C1354.08 42.6463 1354.01 42.9489 1354.01 43.2756V44.0213C1354.01 44.4588 1354.08 44.831 1354.24 45.1378C1354.39 45.4446 1354.61 45.679 1354.89 45.8409C1355.17 46 1355.49 46.0795 1355.86 46.0795C1356.11 46.0795 1356.33 46.0455 1356.52 45.9773C1356.72 45.9062 1356.9 45.8011 1357.04 45.6619C1357.18 45.5227 1357.3 45.3509 1357.37 45.1463L1358.58 45.3636C1358.48 45.7187 1358.31 46.0298 1358.06 46.2969C1357.81 46.5611 1357.5 46.767 1357.13 46.9148C1356.75 47.0597 1356.33 47.1321 1355.85 47.1321ZM1362.53 40.4545V41.4773H1358.95V40.4545H1362.53ZM1359.91 38.8864H1361.19V45.0781C1361.19 45.3253 1361.22 45.5114 1361.3 45.6364C1361.37 45.7585 1361.47 45.8423 1361.58 45.8878C1361.7 45.9304 1361.83 45.9517 1361.97 45.9517C1362.07 45.9517 1362.16 45.9446 1362.24 45.9304C1362.32 45.9162 1362.37 45.9048 1362.42 45.8963L1362.65 46.9489C1362.57 46.9773 1362.47 47.0057 1362.33 47.0341C1362.2 47.0653 1362.03 47.0824 1361.82 47.0852C1361.49 47.0909 1361.17 47.0312 1360.88 46.9062C1360.59 46.7812 1360.36 46.5881 1360.18 46.3267C1360 46.0653 1359.91 45.7372 1359.91 45.3423V38.8864ZM1364.76 38.2727V39.0909C1364.76 39.3324 1364.72 39.5866 1364.62 39.8537C1364.54 40.1179 1364.41 40.3722 1364.25 40.6165C1364.09 40.8608 1363.9 41.071 1363.68 41.2472L1363.05 40.7955C1363.22 40.5511 1363.36 40.2912 1363.48 40.0156C1363.61 39.7401 1363.67 39.4361 1363.67 39.1037V38.2727H1364.76ZM1369.47 42.0526L1368.32 42.2571C1368.27 42.1094 1368.19 41.9687 1368.09 41.8352C1367.98 41.7017 1367.84 41.5923 1367.67 41.5071C1367.49 41.4219 1367.27 41.3793 1367.01 41.3793C1366.65 41.3793 1366.35 41.4602 1366.1 41.6222C1365.86 41.7812 1365.74 41.9872 1365.74 42.2401C1365.74 42.4588 1365.82 42.6349 1365.98 42.7685C1366.15 42.902 1366.41 43.0114 1366.77 43.0966L1367.81 43.3352C1368.41 43.4744 1368.86 43.6889 1369.16 43.9787C1369.45 44.2685 1369.6 44.6449 1369.6 45.108C1369.6 45.5 1369.48 45.8494 1369.26 46.1562C1369.03 46.4602 1368.72 46.6989 1368.32 46.8722C1367.92 47.0455 1367.45 47.1321 1366.92 47.1321C1366.19 47.1321 1365.59 46.9759 1365.13 46.6634C1364.67 46.348 1364.38 45.9006 1364.28 45.321L1365.51 45.1335C1365.58 45.4545 1365.74 45.6974 1365.98 45.8622C1366.22 46.0241 1366.53 46.1051 1366.91 46.1051C1367.33 46.1051 1367.67 46.0185 1367.92 45.8452C1368.17 45.669 1368.29 45.4545 1368.29 45.2017C1368.29 44.9972 1368.21 44.8253 1368.06 44.6861C1367.91 44.5469 1367.68 44.4418 1367.37 44.3707L1366.26 44.1278C1365.65 43.9886 1365.2 43.767 1364.9 43.4631C1364.61 43.1591 1364.47 42.7741 1364.47 42.3082C1364.47 41.9219 1364.58 41.5838 1364.79 41.294C1365.01 41.0043 1365.31 40.7784 1365.69 40.6165C1366.07 40.4517 1366.5 40.3693 1366.99 40.3693C1367.7 40.3693 1368.26 40.5227 1368.67 40.8295C1369.07 41.1335 1369.34 41.5412 1369.47 42.0526ZM1372.65 39.4062V38.2727H1379.4V39.4062H1376.68V47H1375.37V39.4062H1372.65ZM1381.21 47.1449C1380.79 47.1449 1380.42 47.0682 1380.08 46.9148C1379.75 46.7585 1379.48 46.5327 1379.28 46.2372C1379.09 45.9418 1378.99 45.5795 1378.99 45.1506C1378.99 44.7812 1379.07 44.4773 1379.21 44.2386C1379.35 44 1379.54 43.8111 1379.78 43.6719C1380.02 43.5327 1380.29 43.4276 1380.59 43.3565C1380.89 43.2855 1381.19 43.2315 1381.5 43.1946C1381.9 43.1491 1382.21 43.1122 1382.46 43.0838C1382.7 43.0526 1382.88 43.0028 1382.99 42.9347C1383.1 42.8665 1383.16 42.7557 1383.16 42.6023V42.5724C1383.16 42.2003 1383.05 41.9119 1382.84 41.7074C1382.63 41.5028 1382.33 41.4006 1381.91 41.4006C1381.48 41.4006 1381.15 41.4957 1380.9 41.6861C1380.65 41.8736 1380.49 42.0824 1380.39 42.3125L1379.19 42.0398C1379.34 41.642 1379.54 41.321 1379.82 41.0767C1380.09 40.8295 1380.41 40.6506 1380.77 40.5398C1381.12 40.4261 1381.5 40.3693 1381.9 40.3693C1382.16 40.3693 1382.43 40.4006 1382.73 40.4631C1383.02 40.5227 1383.3 40.6335 1383.55 40.7955C1383.81 40.9574 1384.02 41.1889 1384.19 41.4901C1384.35 41.7884 1384.44 42.1761 1384.44 42.6534V47H1383.19V46.1051H1383.14C1383.06 46.2699 1382.93 46.4318 1382.77 46.5909C1382.61 46.75 1382.39 46.8821 1382.13 46.9872C1381.88 47.0923 1381.57 47.1449 1381.21 47.1449ZM1381.48 46.1222C1381.84 46.1222 1382.14 46.0526 1382.39 45.9134C1382.64 45.7741 1382.83 45.5923 1382.96 45.3679C1383.1 45.1406 1383.16 44.8977 1383.16 44.6392V43.7955C1383.12 43.8409 1383.03 43.8835 1382.9 43.9233C1382.77 43.9602 1382.62 43.9929 1382.46 44.0213C1382.29 44.0469 1382.13 44.071 1381.98 44.0938C1381.82 44.1136 1381.69 44.1307 1381.59 44.1449C1381.34 44.1761 1381.11 44.2287 1380.91 44.3026C1380.71 44.3764 1380.54 44.483 1380.42 44.6222C1380.3 44.7585 1380.24 44.9403 1380.24 45.1676C1380.24 45.483 1380.36 45.7216 1380.59 45.8835C1380.83 46.0426 1381.12 46.1222 1381.48 46.1222ZM1386.81 38.2727V47H1385.53V38.2727H1386.81ZM1389.09 44.7798L1389.08 43.2244H1389.31L1391.91 40.4545H1393.44L1390.47 43.608H1390.27L1389.09 44.7798ZM1387.92 47V38.2727H1389.2V47H1387.92ZM1392.05 47L1389.71 43.8892L1390.59 42.9986L1393.62 47H1392.05Z" fill="white"/>
<rect x="1025" y="645" width="30" height="30" rx="15" fill="black"/>
<path d="M1036.25 663.75L1043.75 656.25M1043.75 656.25L1038.12 656.25M1043.75 656.25V661.875" stroke="white" stroke-linecap="round" stroke-linejoin="round"/>
<path d="M128 95.5C127.172 95.5 126.5 96.1716 126.5 97V110.5C126.5 111.328 127.172 112 128 112C128.828 112 129.5 111.328 129.5 110.5V98.5H141.5C142.328 98.5 143 97.8284 143 97C143 96.1716 142.328 95.5 141.5 95.5H128ZM291.061 257.939L129.061 95.9393L126.939 98.0607L288.939 260.061L291.061 257.939Z" fill="black" fill-opacity="0.1"/>
<path d="M126.5 927C126.5 927.828 127.172 928.5 128 928.5L141.5 928.5C142.328 928.5 143 927.828 143 927C143 926.172 142.328 925.5 141.5 925.5L129.5 925.5L129.5 913.5C129.5 912.672 128.828 912 128 912C127.172 912 126.5 912.672 126.5 913.5L126.5 927ZM288.939 763.939L126.939 925.939L129.061 928.061L291.061 766.061L288.939 763.939Z" fill="black" fill-opacity="0.1"/>
<path d="M1311.5 97C1311.5 96.1716 1310.83 95.5 1310 95.5H1296.5C1295.67 95.5 1295 96.1716 1295 97C1295 97.8284 1295.67 98.5 1296.5 98.5H1308.5V110.5C1308.5 111.328 1309.17 112 1310 112C1310.83 112 1311.5 111.328 1311.5 110.5V97ZM1308.94 95.9393L1146.94 257.939L1149.06 260.061L1311.06 98.0607L1308.94 95.9393Z" fill="black" fill-opacity="0.1"/>
<path d="M1363 928.5C1363.83 928.5 1364.5 927.828 1364.5 927V913.5C1364.5 912.672 1363.83 912 1363 912C1362.17 912 1361.5 912.672 1361.5 913.5V925.5H1349.5C1348.67 925.5 1348 926.172 1348 927C1348 927.828 1348.67 928.5 1349.5 928.5H1363ZM1364.06 925.939L1202.06 763.939L1199.94 766.061L1361.94 928.061L1364.06 925.939Z" fill="black" fill-opacity="0.1"/>
<path d="M674.614 174.132C674 174.132 673.464 173.991 673.007 173.71C672.55 173.429 672.195 173.036 671.942 172.53C671.689 172.024 671.562 171.433 671.562 170.757C671.562 170.078 671.689 169.484 671.942 168.976C672.195 168.467 672.55 168.072 673.007 167.791C673.464 167.51 674 167.369 674.614 167.369C675.227 167.369 675.763 167.51 676.22 167.791C676.678 168.072 677.033 168.467 677.286 168.976C677.538 169.484 677.665 170.078 677.665 170.757C677.665 171.433 677.538 172.024 677.286 172.53C677.033 173.036 676.678 173.429 676.22 173.71C675.763 173.991 675.227 174.132 674.614 174.132ZM674.618 173.062C675.016 173.062 675.345 172.957 675.607 172.747C675.868 172.537 676.061 172.257 676.186 171.908C676.314 171.558 676.378 171.173 676.378 170.753C676.378 170.335 676.314 169.952 676.186 169.602C676.061 169.25 675.868 168.967 675.607 168.754C675.345 168.541 675.016 168.435 674.618 168.435C674.217 168.435 673.885 168.541 673.621 168.754C673.359 168.967 673.165 169.25 673.037 169.602C672.912 169.952 672.849 170.335 672.849 170.753C672.849 171.173 672.912 171.558 673.037 171.908C673.165 172.257 673.359 172.537 673.621 172.747C673.885 172.957 674.217 173.062 674.618 173.062ZM679.761 170.114V174H678.487V167.455H679.71V168.52H679.791C679.942 168.173 680.177 167.895 680.498 167.685C680.822 167.474 681.23 167.369 681.721 167.369C682.167 167.369 682.558 167.463 682.893 167.651C683.228 167.835 683.488 168.111 683.673 168.477C683.858 168.844 683.95 169.297 683.95 169.837V174H682.676V169.99C682.676 169.516 682.552 169.145 682.305 168.878C682.058 168.608 681.719 168.473 681.287 168.473C680.991 168.473 680.728 168.537 680.498 168.665C680.271 168.793 680.091 168.98 679.957 169.227C679.826 169.472 679.761 169.767 679.761 170.114ZM689.921 167.565C689.876 167.162 689.688 166.849 689.359 166.628C689.029 166.403 688.614 166.291 688.114 166.291C687.756 166.291 687.447 166.348 687.185 166.462C686.924 166.572 686.721 166.726 686.576 166.922C686.434 167.115 686.363 167.335 686.363 167.582C686.363 167.79 686.411 167.969 686.508 168.119C686.607 168.27 686.736 168.396 686.896 168.499C687.057 168.598 687.231 168.682 687.415 168.75C687.6 168.815 687.778 168.869 687.948 168.912L688.8 169.134C689.079 169.202 689.364 169.294 689.657 169.411C689.95 169.527 690.221 169.68 690.471 169.871C690.721 170.061 690.923 170.297 691.076 170.578C691.232 170.859 691.31 171.196 691.31 171.588C691.31 172.082 691.182 172.521 690.927 172.905C690.674 173.288 690.306 173.591 689.823 173.812C689.343 174.034 688.762 174.145 688.08 174.145C687.427 174.145 686.861 174.041 686.384 173.834C685.907 173.626 685.533 173.332 685.263 172.952C684.994 172.568 684.844 172.114 684.816 171.588H686.137C686.163 171.903 686.265 172.166 686.444 172.376C686.626 172.584 686.857 172.739 687.138 172.841C687.423 172.94 687.734 172.99 688.072 172.99C688.444 172.99 688.775 172.932 689.065 172.815C689.357 172.696 689.587 172.531 689.755 172.321C689.923 172.108 690.006 171.859 690.006 171.575C690.006 171.317 689.932 171.105 689.785 170.94C689.64 170.776 689.442 170.639 689.192 170.531C688.945 170.423 688.665 170.328 688.353 170.246L687.322 169.964C686.623 169.774 686.069 169.494 685.66 169.125C685.253 168.756 685.05 168.267 685.05 167.659C685.05 167.156 685.187 166.717 685.459 166.342C685.732 165.967 686.101 165.676 686.567 165.469C687.033 165.259 687.559 165.153 688.144 165.153C688.735 165.153 689.256 165.257 689.708 165.464C690.163 165.672 690.521 165.957 690.782 166.321C691.043 166.682 691.18 167.097 691.191 167.565H689.921ZM694.939 174.132C694.305 174.132 693.76 173.989 693.302 173.702C692.848 173.412 692.498 173.013 692.254 172.504C692.01 171.996 691.888 171.413 691.888 170.757C691.888 170.092 692.013 169.506 692.263 168.997C692.513 168.486 692.865 168.087 693.319 167.8C693.774 167.513 694.309 167.369 694.926 167.369C695.423 167.369 695.866 167.462 696.255 167.646C696.645 167.828 696.959 168.084 697.197 168.413C697.439 168.743 697.582 169.128 697.628 169.568H696.388C696.319 169.261 696.163 168.997 695.919 168.776C695.677 168.554 695.353 168.443 694.947 168.443C694.592 168.443 694.281 168.537 694.014 168.724C693.75 168.909 693.544 169.173 693.396 169.517C693.248 169.858 693.174 170.261 693.174 170.727C693.174 171.205 693.247 171.616 693.392 171.963C693.537 172.31 693.741 172.578 694.005 172.768C694.272 172.959 694.586 173.054 694.947 173.054C695.189 173.054 695.407 173.01 695.603 172.922C695.802 172.831 695.968 172.702 696.102 172.534C696.238 172.366 696.334 172.165 696.388 171.929H697.628C697.582 172.352 697.444 172.73 697.214 173.062C696.984 173.395 696.676 173.656 696.289 173.847C695.906 174.037 695.456 174.132 694.939 174.132ZM698.39 174V167.455H699.622V168.494H699.69C699.809 168.142 700.019 167.865 700.321 167.663C700.625 167.459 700.968 167.357 701.352 167.357C701.431 167.357 701.525 167.359 701.633 167.365C701.744 167.371 701.83 167.378 701.893 167.386V168.605C701.842 168.591 701.751 168.575 701.62 168.558C701.49 168.538 701.359 168.528 701.228 168.528C700.927 168.528 700.659 168.592 700.423 168.72C700.19 168.845 700.005 169.02 699.869 169.244C699.732 169.466 699.664 169.719 699.664 170.003V174H698.39ZM704.918 174.132C704.305 174.132 703.769 173.991 703.312 173.71C702.854 173.429 702.499 173.036 702.246 172.53C701.994 172.024 701.867 171.433 701.867 170.757C701.867 170.078 701.994 169.484 702.246 168.976C702.499 168.467 702.854 168.072 703.312 167.791C703.769 167.51 704.305 167.369 704.918 167.369C705.532 167.369 706.067 167.51 706.525 167.791C706.982 168.072 707.337 168.467 707.59 168.976C707.843 169.484 707.969 170.078 707.969 170.757C707.969 171.433 707.843 172.024 707.59 172.53C707.337 173.036 706.982 173.429 706.525 173.71C706.067 173.991 705.532 174.132 704.918 174.132ZM704.923 173.062C705.32 173.062 705.65 172.957 705.911 172.747C706.173 172.537 706.366 172.257 706.491 171.908C706.619 171.558 706.683 171.173 706.683 170.753C706.683 170.335 706.619 169.952 706.491 169.602C706.366 169.25 706.173 168.967 705.911 168.754C705.65 168.541 705.32 168.435 704.923 168.435C704.522 168.435 704.19 168.541 703.925 168.754C703.664 168.967 703.469 169.25 703.342 169.602C703.217 169.952 703.154 170.335 703.154 170.753C703.154 171.173 703.217 171.558 703.342 171.908C703.469 172.257 703.664 172.537 703.925 172.747C704.19 172.957 704.522 173.062 704.923 173.062ZM710.066 165.273V174H708.792V165.273H710.066ZM712.454 165.273V174H711.18V165.273H712.454ZM716.553 169.811V168.69H722.012V169.811H716.553ZM716.553 172.436V171.315H722.012V172.436H716.553ZM731.017 169.053L729.862 169.257C729.814 169.109 729.737 168.969 729.632 168.835C729.53 168.702 729.39 168.592 729.214 168.507C729.038 168.422 728.818 168.379 728.554 168.379C728.193 168.379 727.892 168.46 727.65 168.622C727.409 168.781 727.288 168.987 727.288 169.24C727.288 169.459 727.369 169.635 727.531 169.768C727.693 169.902 727.954 170.011 728.315 170.097L729.355 170.335C729.957 170.474 730.406 170.689 730.701 170.979C730.997 171.268 731.145 171.645 731.145 172.108C731.145 172.5 731.031 172.849 730.804 173.156C730.579 173.46 730.265 173.699 729.862 173.872C729.461 174.045 728.997 174.132 728.469 174.132C727.736 174.132 727.138 173.976 726.675 173.663C726.211 173.348 725.927 172.901 725.822 172.321L727.054 172.134C727.13 172.455 727.288 172.697 727.527 172.862C727.765 173.024 728.076 173.105 728.46 173.105C728.878 173.105 729.211 173.018 729.461 172.845C729.711 172.669 729.836 172.455 729.836 172.202C729.836 171.997 729.76 171.825 729.606 171.686C729.456 171.547 729.224 171.442 728.912 171.371L727.804 171.128C727.193 170.989 726.741 170.767 726.449 170.463C726.159 170.159 726.014 169.774 726.014 169.308C726.014 168.922 726.122 168.584 726.338 168.294C726.554 168.004 726.852 167.778 727.233 167.616C727.613 167.452 728.05 167.369 728.541 167.369C729.248 167.369 729.805 167.523 730.211 167.83C730.618 168.134 730.886 168.541 731.017 169.053ZM734.703 174.132C734.069 174.132 733.524 173.989 733.066 173.702C732.612 173.412 732.262 173.013 732.018 172.504C731.774 171.996 731.652 171.413 731.652 170.757C731.652 170.092 731.777 169.506 732.027 168.997C732.277 168.486 732.629 168.087 733.083 167.8C733.538 167.513 734.073 167.369 734.69 167.369C735.187 167.369 735.63 167.462 736.019 167.646C736.409 167.828 736.723 168.084 736.961 168.413C737.203 168.743 737.346 169.128 737.392 169.568H736.152C736.083 169.261 735.927 168.997 735.683 168.776C735.441 168.554 735.117 168.443 734.711 168.443C734.356 168.443 734.045 168.537 733.778 168.724C733.514 168.909 733.308 169.173 733.16 169.517C733.012 169.858 732.938 170.261 732.938 170.727C732.938 171.205 733.011 171.616 733.156 171.963C733.301 172.31 733.505 172.578 733.769 172.768C734.037 172.959 734.35 173.054 734.711 173.054C734.953 173.054 735.171 173.01 735.367 172.922C735.566 172.831 735.733 172.702 735.866 172.534C736.002 172.366 736.098 172.165 736.152 171.929H737.392C737.346 172.352 737.208 172.73 736.978 173.062C736.748 173.395 736.44 173.656 736.054 173.847C735.67 174.037 735.22 174.132 734.703 174.132ZM740.059 174.145C739.644 174.145 739.269 174.068 738.934 173.915C738.599 173.759 738.333 173.533 738.137 173.237C737.944 172.942 737.847 172.58 737.847 172.151C737.847 171.781 737.918 171.477 738.06 171.239C738.202 171 738.394 170.811 738.636 170.672C738.877 170.533 739.147 170.428 739.445 170.357C739.744 170.286 740.048 170.232 740.357 170.195C740.749 170.149 741.068 170.112 741.312 170.084C741.556 170.053 741.734 170.003 741.845 169.935C741.955 169.866 742.011 169.756 742.011 169.602V169.572C742.011 169.2 741.906 168.912 741.695 168.707C741.488 168.503 741.178 168.401 740.766 168.401C740.337 168.401 739.999 168.496 739.752 168.686C739.508 168.874 739.339 169.082 739.245 169.312L738.048 169.04C738.19 168.642 738.397 168.321 738.67 168.077C738.945 167.83 739.262 167.651 739.62 167.54C739.978 167.426 740.354 167.369 740.749 167.369C741.011 167.369 741.288 167.401 741.58 167.463C741.876 167.523 742.151 167.634 742.407 167.795C742.666 167.957 742.877 168.189 743.042 168.49C743.207 168.788 743.289 169.176 743.289 169.653V174H742.045V173.105H741.994C741.911 173.27 741.788 173.432 741.623 173.591C741.458 173.75 741.247 173.882 740.988 173.987C740.729 174.092 740.42 174.145 740.059 174.145ZM740.336 173.122C740.688 173.122 740.989 173.053 741.239 172.913C741.492 172.774 741.684 172.592 741.815 172.368C741.948 172.141 742.015 171.898 742.015 171.639V170.795C741.97 170.841 741.881 170.884 741.751 170.923C741.623 170.96 741.477 170.993 741.312 171.021C741.147 171.047 740.987 171.071 740.83 171.094C740.674 171.114 740.543 171.131 740.438 171.145C740.191 171.176 739.965 171.229 739.761 171.303C739.559 171.376 739.397 171.483 739.275 171.622C739.156 171.759 739.096 171.94 739.096 172.168C739.096 172.483 739.212 172.722 739.445 172.884C739.678 173.043 739.975 173.122 740.336 173.122ZM745.66 165.273V174H744.386V165.273H745.66ZM749.596 174.132C748.951 174.132 748.395 173.994 747.929 173.719C747.466 173.44 747.108 173.05 746.855 172.547C746.605 172.041 746.48 171.449 746.48 170.77C746.48 170.099 746.605 169.509 746.855 168.997C747.108 168.486 747.461 168.087 747.912 167.8C748.367 167.513 748.898 167.369 749.506 167.369C749.875 167.369 750.233 167.43 750.58 167.553C750.926 167.675 751.238 167.866 751.513 168.128C751.789 168.389 752.006 168.729 752.165 169.146C752.324 169.561 752.404 170.065 752.404 170.659V171.111H747.201V170.156H751.155C751.155 169.821 751.087 169.524 750.951 169.266C750.814 169.004 750.623 168.798 750.375 168.648C750.131 168.497 749.844 168.422 749.515 168.422C749.157 168.422 748.844 168.51 748.577 168.686C748.313 168.859 748.108 169.087 747.963 169.368C747.821 169.646 747.75 169.949 747.75 170.276V171.021C747.75 171.459 747.827 171.831 747.98 172.138C748.137 172.445 748.354 172.679 748.632 172.841C748.911 173 749.236 173.08 749.608 173.08C749.85 173.08 750.07 173.045 750.269 172.977C750.468 172.906 750.64 172.801 750.784 172.662C750.929 172.523 751.04 172.351 751.117 172.146L752.323 172.364C752.226 172.719 752.053 173.03 751.803 173.297C751.556 173.561 751.245 173.767 750.87 173.915C750.498 174.06 750.073 174.132 749.596 174.132ZM753.588 170.378C753.588 169.31 753.729 168.327 754.01 167.429C754.291 166.531 754.702 165.703 755.242 164.945H756.409C756.199 165.226 756.003 165.571 755.821 165.98C755.639 166.389 755.48 166.838 755.344 167.327C755.208 167.812 755.101 168.317 755.024 168.839C754.948 169.359 754.909 169.872 754.909 170.378C754.909 171.054 754.976 171.739 755.11 172.432C755.243 173.125 755.423 173.768 755.651 174.362C755.878 174.956 756.131 175.44 756.409 175.815H755.242C754.702 175.057 754.291 174.229 754.01 173.331C753.729 172.433 753.588 171.449 753.588 170.378ZM760.447 165.273V174H759.126V166.594H759.075L756.986 167.957V166.696L759.164 165.273H760.447ZM764.675 170.378C764.675 171.449 764.534 172.433 764.253 173.331C763.972 174.229 763.561 175.057 763.021 175.815H761.854C762.064 175.534 762.26 175.189 762.442 174.78C762.624 174.371 762.783 173.923 762.919 173.438C763.055 172.949 763.162 172.443 763.239 171.92C763.315 171.398 763.354 170.884 763.354 170.378C763.354 169.705 763.287 169.021 763.153 168.328C763.02 167.635 762.84 166.991 762.612 166.398C762.385 165.804 762.132 165.32 761.854 164.945H763.021C763.561 165.703 763.972 166.531 764.253 167.429C764.534 168.327 764.675 169.31 764.675 170.378Z" fill="black" fill-opacity="0.2"/>
<path d="M675.614 859.132C675 859.132 674.464 858.991 674.007 858.71C673.55 858.429 673.195 858.036 672.942 857.53C672.689 857.024 672.562 856.433 672.562 855.757C672.562 855.078 672.689 854.484 672.942 853.976C673.195 853.467 673.55 853.072 674.007 852.791C674.464 852.51 675 852.369 675.614 852.369C676.227 852.369 676.763 852.51 677.22 852.791C677.678 853.072 678.033 853.467 678.286 853.976C678.538 854.484 678.665 855.078 678.665 855.757C678.665 856.433 678.538 857.024 678.286 857.53C678.033 858.036 677.678 858.429 677.22 858.71C676.763 858.991 676.227 859.132 675.614 859.132ZM675.618 858.062C676.016 858.062 676.345 857.957 676.607 857.747C676.868 857.537 677.061 857.257 677.186 856.908C677.314 856.558 677.378 856.173 677.378 855.753C677.378 855.335 677.314 854.952 677.186 854.602C677.061 854.25 676.868 853.967 676.607 853.754C676.345 853.541 676.016 853.435 675.618 853.435C675.217 853.435 674.885 853.541 674.621 853.754C674.359 853.967 674.165 854.25 674.037 854.602C673.912 854.952 673.849 855.335 673.849 855.753C673.849 856.173 673.912 856.558 674.037 856.908C674.165 857.257 674.359 857.537 674.621 857.747C674.885 857.957 675.217 858.062 675.618 858.062ZM680.761 855.114V859H679.487V852.455H680.71V853.52H680.791C680.942 853.173 681.177 852.895 681.498 852.685C681.822 852.474 682.23 852.369 682.721 852.369C683.167 852.369 683.558 852.463 683.893 852.651C684.228 852.835 684.488 853.111 684.673 853.477C684.858 853.844 684.95 854.297 684.95 854.837V859H683.676V854.99C683.676 854.516 683.552 854.145 683.305 853.878C683.058 853.608 682.719 853.473 682.287 853.473C681.991 853.473 681.728 853.537 681.498 853.665C681.271 853.793 681.091 853.98 680.957 854.227C680.826 854.472 680.761 854.767 680.761 855.114ZM690.921 852.565C690.876 852.162 690.688 851.849 690.359 851.628C690.029 851.403 689.614 851.291 689.114 851.291C688.756 851.291 688.447 851.348 688.185 851.462C687.924 851.572 687.721 851.726 687.576 851.922C687.434 852.115 687.363 852.335 687.363 852.582C687.363 852.79 687.411 852.969 687.508 853.119C687.607 853.27 687.736 853.396 687.896 853.499C688.057 853.598 688.231 853.682 688.415 853.75C688.6 853.815 688.778 853.869 688.948 853.912L689.8 854.134C690.079 854.202 690.364 854.294 690.657 854.411C690.95 854.527 691.221 854.68 691.471 854.871C691.721 855.061 691.923 855.297 692.076 855.578C692.232 855.859 692.31 856.196 692.31 856.588C692.31 857.082 692.182 857.521 691.927 857.905C691.674 858.288 691.306 858.591 690.823 858.812C690.343 859.034 689.762 859.145 689.08 859.145C688.427 859.145 687.861 859.041 687.384 858.834C686.907 858.626 686.533 858.332 686.263 857.952C685.994 857.568 685.844 857.114 685.816 856.588H687.137C687.163 856.903 687.265 857.166 687.444 857.376C687.626 857.584 687.857 857.739 688.138 857.841C688.423 857.94 688.734 857.99 689.072 857.99C689.444 857.99 689.775 857.932 690.065 857.815C690.357 857.696 690.587 857.531 690.755 857.321C690.923 857.108 691.006 856.859 691.006 856.575C691.006 856.317 690.932 856.105 690.785 855.94C690.64 855.776 690.442 855.639 690.192 855.531C689.945 855.423 689.665 855.328 689.353 855.246L688.322 854.964C687.623 854.774 687.069 854.494 686.66 854.125C686.253 853.756 686.05 853.267 686.05 852.659C686.05 852.156 686.187 851.717 686.459 851.342C686.732 850.967 687.101 850.676 687.567 850.469C688.033 850.259 688.559 850.153 689.144 850.153C689.735 850.153 690.256 850.257 690.708 850.464C691.163 850.672 691.521 850.957 691.782 851.321C692.043 851.682 692.18 852.097 692.191 852.565H690.921ZM695.939 859.132C695.305 859.132 694.76 858.989 694.302 858.702C693.848 858.412 693.498 858.013 693.254 857.504C693.01 856.996 692.888 856.413 692.888 855.757C692.888 855.092 693.013 854.506 693.263 853.997C693.513 853.486 693.865 853.087 694.319 852.8C694.774 852.513 695.309 852.369 695.926 852.369C696.423 852.369 696.866 852.462 697.255 852.646C697.645 852.828 697.959 853.084 698.197 853.413C698.439 853.743 698.582 854.128 698.628 854.568H697.388C697.319 854.261 697.163 853.997 696.919 853.776C696.677 853.554 696.353 853.443 695.947 853.443C695.592 853.443 695.281 853.537 695.014 853.724C694.75 853.909 694.544 854.173 694.396 854.517C694.248 854.858 694.174 855.261 694.174 855.727C694.174 856.205 694.247 856.616 694.392 856.963C694.537 857.31 694.741 857.578 695.005 857.768C695.272 857.959 695.586 858.054 695.947 858.054C696.189 858.054 696.407 858.01 696.603 857.922C696.802 857.831 696.968 857.702 697.102 857.534C697.238 857.366 697.334 857.165 697.388 856.929H698.628C698.582 857.352 698.444 857.73 698.214 858.062C697.984 858.395 697.676 858.656 697.289 858.847C696.906 859.037 696.456 859.132 695.939 859.132ZM699.39 859V852.455H700.622V853.494H700.69C700.809 853.142 701.019 852.865 701.321 852.663C701.625 852.459 701.968 852.357 702.352 852.357C702.431 852.357 702.525 852.359 702.633 852.365C702.744 852.371 702.83 852.378 702.893 852.386V853.605C702.842 853.591 702.751 853.575 702.62 853.558C702.49 853.538 702.359 853.528 702.228 853.528C701.927 853.528 701.659 853.592 701.423 853.72C701.19 853.845 701.005 854.02 700.869 854.244C700.732 854.466 700.664 854.719 700.664 855.003V859H699.39ZM705.918 859.132C705.305 859.132 704.769 858.991 704.312 858.71C703.854 858.429 703.499 858.036 703.246 857.53C702.994 857.024 702.867 856.433 702.867 855.757C702.867 855.078 702.994 854.484 703.246 853.976C703.499 853.467 703.854 853.072 704.312 852.791C704.769 852.51 705.305 852.369 705.918 852.369C706.532 852.369 707.067 852.51 707.525 852.791C707.982 853.072 708.337 853.467 708.59 853.976C708.843 854.484 708.969 855.078 708.969 855.757C708.969 856.433 708.843 857.024 708.59 857.53C708.337 858.036 707.982 858.429 707.525 858.71C707.067 858.991 706.532 859.132 705.918 859.132ZM705.923 858.062C706.32 858.062 706.65 857.957 706.911 857.747C707.173 857.537 707.366 857.257 707.491 856.908C707.619 856.558 707.683 856.173 707.683 855.753C707.683 855.335 707.619 854.952 707.491 854.602C707.366 854.25 707.173 853.967 706.911 853.754C706.65 853.541 706.32 853.435 705.923 853.435C705.522 853.435 705.19 853.541 704.925 853.754C704.664 853.967 704.469 854.25 704.342 854.602C704.217 854.952 704.154 855.335 704.154 855.753C704.154 856.173 704.217 856.558 704.342 856.908C704.469 857.257 704.664 857.537 704.925 857.747C705.19 857.957 705.522 858.062 705.923 858.062ZM711.066 850.273V859H709.792V850.273H711.066ZM713.454 850.273V859H712.18V850.273H713.454ZM717.553 854.811V853.69H723.012V854.811H717.553ZM717.553 857.436V856.315H723.012V857.436H717.553ZM732.017 854.053L730.862 854.257C730.814 854.109 730.737 853.969 730.632 853.835C730.53 853.702 730.39 853.592 730.214 853.507C730.038 853.422 729.818 853.379 729.554 853.379C729.193 853.379 728.892 853.46 728.65 853.622C728.409 853.781 728.288 853.987 728.288 854.24C728.288 854.459 728.369 854.635 728.531 854.768C728.693 854.902 728.954 855.011 729.315 855.097L730.355 855.335C730.957 855.474 731.406 855.689 731.701 855.979C731.997 856.268 732.145 856.645 732.145 857.108C732.145 857.5 732.031 857.849 731.804 858.156C731.579 858.46 731.265 858.699 730.862 858.872C730.461 859.045 729.997 859.132 729.469 859.132C728.736 859.132 728.138 858.976 727.675 858.663C727.211 858.348 726.927 857.901 726.822 857.321L728.054 857.134C728.13 857.455 728.288 857.697 728.527 857.862C728.765 858.024 729.076 858.105 729.46 858.105C729.878 858.105 730.211 858.018 730.461 857.845C730.711 857.669 730.836 857.455 730.836 857.202C730.836 856.997 730.76 856.825 730.606 856.686C730.456 856.547 730.224 856.442 729.912 856.371L728.804 856.128C728.193 855.989 727.741 855.767 727.449 855.463C727.159 855.159 727.014 854.774 727.014 854.308C727.014 853.922 727.122 853.584 727.338 853.294C727.554 853.004 727.852 852.778 728.233 852.616C728.613 852.452 729.05 852.369 729.541 852.369C730.248 852.369 730.805 852.523 731.211 852.83C731.618 853.134 731.886 853.541 732.017 854.053ZM735.703 859.132C735.069 859.132 734.524 858.989 734.066 858.702C733.612 858.412 733.262 858.013 733.018 857.504C732.774 856.996 732.652 856.413 732.652 855.757C732.652 855.092 732.777 854.506 733.027 853.997C733.277 853.486 733.629 853.087 734.083 852.8C734.538 852.513 735.073 852.369 735.69 852.369C736.187 852.369 736.63 852.462 737.019 852.646C737.409 852.828 737.723 853.084 737.961 853.413C738.203 853.743 738.346 854.128 738.392 854.568H737.152C737.083 854.261 736.927 853.997 736.683 853.776C736.441 853.554 736.117 853.443 735.711 853.443C735.356 853.443 735.045 853.537 734.778 853.724C734.514 853.909 734.308 854.173 734.16 854.517C734.012 854.858 733.938 855.261 733.938 855.727C733.938 856.205 734.011 856.616 734.156 856.963C734.301 857.31 734.505 857.578 734.769 857.768C735.037 857.959 735.35 858.054 735.711 858.054C735.953 858.054 736.171 858.01 736.367 857.922C736.566 857.831 736.733 857.702 736.866 857.534C737.002 857.366 737.098 857.165 737.152 856.929H738.392C738.346 857.352 738.208 857.73 737.978 858.062C737.748 858.395 737.44 858.656 737.054 858.847C736.67 859.037 736.22 859.132 735.703 859.132ZM741.059 859.145C740.644 859.145 740.269 859.068 739.934 858.915C739.599 858.759 739.333 858.533 739.137 858.237C738.944 857.942 738.847 857.58 738.847 857.151C738.847 856.781 738.918 856.477 739.06 856.239C739.202 856 739.394 855.811 739.636 855.672C739.877 855.533 740.147 855.428 740.445 855.357C740.744 855.286 741.048 855.232 741.357 855.195C741.749 855.149 742.068 855.112 742.312 855.084C742.556 855.053 742.734 855.003 742.845 854.935C742.955 854.866 743.011 854.756 743.011 854.602V854.572C743.011 854.2 742.906 853.912 742.695 853.707C742.488 853.503 742.178 853.401 741.766 853.401C741.337 853.401 740.999 853.496 740.752 853.686C740.508 853.874 740.339 854.082 740.245 854.312L739.048 854.04C739.19 853.642 739.397 853.321 739.67 853.077C739.945 852.83 740.262 852.651 740.62 852.54C740.978 852.426 741.354 852.369 741.749 852.369C742.011 852.369 742.288 852.401 742.58 852.463C742.876 852.523 743.151 852.634 743.407 852.795C743.666 852.957 743.877 853.189 744.042 853.49C744.207 853.788 744.289 854.176 744.289 854.653V859H743.045V858.105H742.994C742.911 858.27 742.788 858.432 742.623 858.591C742.458 858.75 742.247 858.882 741.988 858.987C741.729 859.092 741.42 859.145 741.059 859.145ZM741.336 858.122C741.688 858.122 741.989 858.053 742.239 857.913C742.492 857.774 742.684 857.592 742.815 857.368C742.948 857.141 743.015 856.898 743.015 856.639V855.795C742.97 855.841 742.881 855.884 742.751 855.923C742.623 855.96 742.477 855.993 742.312 856.021C742.147 856.047 741.987 856.071 741.83 856.094C741.674 856.114 741.543 856.131 741.438 856.145C741.191 856.176 740.965 856.229 740.761 856.303C740.559 856.376 740.397 856.483 740.275 856.622C740.156 856.759 740.096 856.94 740.096 857.168C740.096 857.483 740.212 857.722 740.445 857.884C740.678 858.043 740.975 858.122 741.336 858.122ZM746.66 850.273V859H745.386V850.273H746.66ZM750.596 859.132C749.951 859.132 749.395 858.994 748.929 858.719C748.466 858.44 748.108 858.05 747.855 857.547C747.605 857.041 747.48 856.449 747.48 855.77C747.48 855.099 747.605 854.509 747.855 853.997C748.108 853.486 748.461 853.087 748.912 852.8C749.367 852.513 749.898 852.369 750.506 852.369C750.875 852.369 751.233 852.43 751.58 852.553C751.926 852.675 752.238 852.866 752.513 853.128C752.789 853.389 753.006 853.729 753.165 854.146C753.324 854.561 753.404 855.065 753.404 855.659V856.111H748.201V855.156H752.155C752.155 854.821 752.087 854.524 751.951 854.266C751.814 854.004 751.623 853.798 751.375 853.648C751.131 853.497 750.844 853.422 750.515 853.422C750.157 853.422 749.844 853.51 749.577 853.686C749.313 853.859 749.108 854.087 748.963 854.368C748.821 854.646 748.75 854.949 748.75 855.276V856.021C748.75 856.459 748.827 856.831 748.98 857.138C749.137 857.445 749.354 857.679 749.632 857.841C749.911 858 750.236 858.08 750.608 858.08C750.85 858.08 751.07 858.045 751.269 857.977C751.468 857.906 751.64 857.801 751.784 857.662C751.929 857.523 752.04 857.351 752.117 857.146L753.323 857.364C753.226 857.719 753.053 858.03 752.803 858.297C752.556 858.561 752.245 858.767 751.87 858.915C751.498 859.06 751.073 859.132 750.596 859.132ZM754.588 855.378C754.588 854.31 754.729 853.327 755.01 852.429C755.291 851.531 755.702 850.703 756.242 849.945H757.409C757.199 850.226 757.003 850.571 756.821 850.98C756.639 851.389 756.48 851.838 756.344 852.327C756.208 852.812 756.101 853.317 756.024 853.839C755.948 854.359 755.909 854.872 755.909 855.378C755.909 856.054 755.976 856.739 756.11 857.432C756.243 858.125 756.423 858.768 756.651 859.362C756.878 859.956 757.131 860.44 757.409 860.815H756.242C755.702 860.057 755.291 859.229 755.01 858.331C754.729 857.433 754.588 856.449 754.588 855.378ZM761.447 850.273V859H760.126V851.594H760.075L757.986 852.957V851.696L760.164 850.273H761.447ZM765.675 855.378C765.675 856.449 765.534 857.433 765.253 858.331C764.972 859.229 764.561 860.057 764.021 860.815H762.854C763.064 860.534 763.26 860.189 763.442 859.78C763.624 859.371 763.783 858.923 763.919 858.438C764.055 857.949 764.162 857.443 764.239 856.92C764.315 856.398 764.354 855.884 764.354 855.378C764.354 854.705 764.287 854.021 764.153 853.328C764.02 852.635 763.84 851.991 763.612 851.398C763.385 850.804 763.132 850.32 762.854 849.945H764.021C764.561 850.703 764.972 851.531 765.253 852.429C765.534 853.327 765.675 854.31 765.675 855.378Z" fill="black" fill-opacity="0.2"/>
<line x1="781" y1="168.5" x2="1201" y2="168.5" stroke="black" stroke-opacity="0.1"/>
<line x1="782" y1="853.5" x2="1202" y2="853.5" stroke="black" stroke-opacity="0.1"/>
<line x1="236" y1="168.5" x2="656" y2="168.5" stroke="black" stroke-opacity="0.1"/>
<line x1="237" y1="853.5" x2="657" y2="853.5" stroke="black" stroke-opacity="0.1"/>
<line x1="192.5" y1="809" x2="192.5" y2="224" stroke="black" stroke-opacity="0.1"/>
<line x1="1281.5" y1="804" x2="1281.5" y2="219" stroke="black" stroke-opacity="0.1"/>
<line x1="712" y1="38.5" x2="728" y2="38.5" stroke="black" stroke-opacity="0.4"/>
<line x1="712" y1="44.5" x2="728" y2="44.5" stroke="black" stroke-opacity="0.4"/>
<circle cx="1336" cy="42" r="4" fill="white"/>
</svg>
